G75*
%MOIN*%
%OFA0B0*%
%FSLAX25Y25*%
%IPPOS*%
%LPD*%
%AMOC8*
5,1,8,0,0,1.08239X$1,22.5*
%
%ADD10R,0.03937X0.04331*%
%ADD11R,0.07400X0.07400*%
%ADD12C,0.07400*%
%ADD13OC8,0.07400*%
%ADD14R,0.08700X0.02400*%
%ADD15R,0.05000X0.02200*%
%ADD16R,0.02200X0.05000*%
%ADD17C,0.01772*%
%ADD18C,0.01000*%
%ADD19C,0.01600*%
%ADD20C,0.03569*%
%ADD21C,0.04000*%
D10*
X0091800Y0063454D03*
X0091800Y0070146D03*
D11*
X0066800Y0186300D03*
X0016800Y0017300D03*
D12*
X0026800Y0016300D03*
X0036800Y0017300D03*
X0046800Y0016300D03*
X0056800Y0017300D03*
X0066800Y0016300D03*
X0076800Y0017300D03*
X0086800Y0016300D03*
X0056800Y0187300D03*
X0046800Y0186300D03*
X0036800Y0187300D03*
D13*
X0077800Y0131800D03*
X0078800Y0121800D03*
X0077800Y0111800D03*
X0087800Y0111800D03*
X0088800Y0121800D03*
X0087800Y0131800D03*
D14*
X0037100Y0129300D03*
X0037100Y0124300D03*
X0037100Y0119300D03*
X0037100Y0114300D03*
X0016500Y0114300D03*
X0016500Y0119300D03*
X0016500Y0124300D03*
X0016500Y0129300D03*
D15*
X0034900Y0077824D03*
X0034900Y0074674D03*
X0034900Y0071524D03*
X0034900Y0068375D03*
X0034900Y0065225D03*
X0034900Y0062076D03*
X0034900Y0058926D03*
X0034900Y0055776D03*
X0068700Y0055776D03*
X0068700Y0058926D03*
X0068700Y0062076D03*
X0068700Y0065225D03*
X0068700Y0068375D03*
X0068700Y0071524D03*
X0068700Y0074674D03*
X0068700Y0077824D03*
D16*
X0062824Y0083700D03*
X0059674Y0083700D03*
X0056524Y0083700D03*
X0053375Y0083700D03*
X0050225Y0083700D03*
X0047076Y0083700D03*
X0043926Y0083700D03*
X0040776Y0083700D03*
X0040776Y0049900D03*
X0043926Y0049900D03*
X0047076Y0049900D03*
X0050225Y0049900D03*
X0053375Y0049900D03*
X0056524Y0049900D03*
X0059674Y0049900D03*
X0062824Y0049900D03*
D17*
X0024664Y0052076D02*
X0018936Y0052076D01*
X0018936Y0056800D02*
X0024664Y0056800D01*
X0024664Y0061524D02*
X0018936Y0061524D01*
D18*
X0017800Y0061524D02*
X0021800Y0061524D01*
X0026100Y0061650D01*
X0027450Y0061650D01*
X0030150Y0058950D01*
X0034650Y0058950D01*
X0034900Y0058926D01*
X0034650Y0055800D02*
X0034900Y0055776D01*
X0034650Y0055800D02*
X0031050Y0055800D01*
X0027450Y0052200D01*
X0026100Y0052200D01*
X0021800Y0052076D01*
X0017800Y0052076D01*
X0017800Y0056800D02*
X0021800Y0056800D01*
X0025800Y0056800D01*
X0025800Y0052076D02*
X0021800Y0052076D01*
X0021800Y0061524D02*
X0025800Y0061524D01*
X0034900Y0062076D02*
X0035100Y0061650D01*
X0037800Y0061650D01*
X0038700Y0060750D01*
X0039600Y0060750D01*
X0041400Y0062550D01*
X0062550Y0062550D01*
X0066600Y0058500D01*
X0068400Y0058500D01*
X0068700Y0058926D01*
X0068850Y0058950D01*
X0071100Y0058950D01*
X0075600Y0063450D01*
X0077850Y0063450D01*
X0077850Y0111600D01*
X0077800Y0111800D01*
X0077400Y0111600D01*
X0071100Y0111600D01*
X0068850Y0109350D01*
X0052650Y0109350D01*
X0052650Y0180900D01*
X0056700Y0184950D01*
X0056700Y0187200D01*
X0056800Y0187300D01*
X0022500Y0129600D02*
X0023850Y0128250D01*
X0022500Y0129600D02*
X0021600Y0129600D01*
X0020700Y0128700D01*
X0017100Y0128700D01*
X0016500Y0129300D01*
X0016200Y0124650D02*
X0016500Y0124300D01*
X0016200Y0124650D02*
X0009450Y0124650D01*
X0006300Y0121500D01*
X0006300Y0112050D01*
X0040950Y0077400D01*
X0060300Y0077400D01*
X0065700Y0072000D01*
X0066150Y0072000D01*
X0066600Y0071550D01*
X0068400Y0071550D01*
X0068700Y0071524D01*
X0068400Y0062100D02*
X0065700Y0062100D01*
X0054000Y0073800D01*
X0050400Y0083700D02*
X0050225Y0083700D01*
X0050400Y0083700D02*
X0050400Y0105750D01*
X0052650Y0109350D02*
X0031050Y0109350D01*
X0026550Y0113850D01*
X0021600Y0113850D01*
X0021150Y0114300D01*
X0016500Y0114300D01*
X0035550Y0068850D02*
X0035100Y0068400D01*
X0034900Y0068375D01*
X0035550Y0068850D02*
X0037350Y0068850D01*
X0038700Y0067500D01*
X0040050Y0067500D01*
X0041400Y0066150D01*
X0041400Y0062550D01*
X0047076Y0049900D02*
X0047250Y0049500D01*
X0047250Y0039600D01*
X0027000Y0019350D01*
X0027000Y0016650D01*
X0026800Y0016300D01*
X0046800Y0016300D02*
X0046800Y0019350D01*
X0050400Y0022950D01*
X0050400Y0049500D01*
X0050225Y0049900D01*
X0053375Y0049900D02*
X0053550Y0049950D01*
X0053550Y0052650D01*
X0057150Y0056250D01*
X0062100Y0056250D01*
X0067950Y0050400D01*
X0067950Y0022050D01*
X0067500Y0021600D01*
X0067500Y0017100D01*
X0067050Y0016650D01*
X0066800Y0016300D01*
X0058050Y0021600D02*
X0057150Y0020700D01*
X0057150Y0017550D01*
X0056800Y0017300D01*
X0058050Y0021600D02*
X0058050Y0023400D01*
X0056700Y0024750D01*
X0056700Y0049500D01*
X0056524Y0049900D01*
X0059674Y0049900D02*
X0059850Y0049500D01*
X0059850Y0043650D01*
X0060300Y0043200D01*
X0062550Y0045900D02*
X0064350Y0044100D01*
X0064350Y0040050D01*
X0062550Y0045900D02*
X0062550Y0049500D01*
X0062824Y0049900D01*
X0068700Y0055776D02*
X0068850Y0055800D01*
X0071550Y0055800D01*
X0072900Y0057150D01*
X0074250Y0057150D01*
X0077850Y0063450D02*
X0082350Y0063450D01*
X0082350Y0022500D01*
X0086400Y0018450D01*
X0086400Y0016650D01*
X0086800Y0016300D01*
X0068700Y0062076D02*
X0068400Y0062100D01*
X0082350Y0063450D02*
X0091800Y0063450D01*
X0091800Y0063454D01*
X0047250Y0083700D02*
X0047076Y0083700D01*
X0047250Y0083700D02*
X0047250Y0099000D01*
X0040500Y0105750D01*
X0043650Y0089100D02*
X0043650Y0083700D01*
X0043926Y0083700D01*
D19*
X0011300Y0017785D02*
X0008362Y0017785D01*
X0009430Y0016187D02*
X0011300Y0016187D01*
X0011300Y0017100D02*
X0011300Y0013806D01*
X0010459Y0014647D01*
X0007168Y0019572D01*
X0004901Y0025044D01*
X0003745Y0030854D01*
X0003600Y0033816D01*
X0003600Y0169784D01*
X0003745Y0172746D01*
X0004901Y0178556D01*
X0007168Y0184028D01*
X0010459Y0188953D01*
X0014647Y0193141D01*
X0019572Y0196432D01*
X0025044Y0198699D01*
X0030854Y0199855D01*
X0033816Y0200000D01*
X0069784Y0200000D01*
X0072746Y0199855D01*
X0078556Y0198699D01*
X0084028Y0196432D01*
X0088953Y0193141D01*
X0093141Y0188953D01*
X0096432Y0184028D01*
X0098699Y0178556D01*
X0099855Y0172746D01*
X0100000Y0169784D01*
X0100000Y0033816D01*
X0099855Y0030854D01*
X0098699Y0025044D01*
X0096432Y0019572D01*
X0093141Y0014647D01*
X0088953Y0010459D01*
X0084028Y0007168D01*
X0078556Y0004901D01*
X0072746Y0003745D01*
X0069784Y0003600D01*
X0033816Y0003600D01*
X0030854Y0003745D01*
X0025044Y0004901D01*
X0019572Y0007168D01*
X0014647Y0010459D01*
X0013306Y0011800D01*
X0016600Y0011800D01*
X0016600Y0017100D01*
X0017000Y0017100D01*
X0017000Y0011800D01*
X0020737Y0011800D01*
X0021195Y0011923D01*
X0021605Y0012160D01*
X0021940Y0012495D01*
X0022177Y0012905D01*
X0022300Y0013363D01*
X0022300Y0013837D01*
X0022476Y0013411D01*
X0023911Y0011976D01*
X0025786Y0011200D01*
X0027814Y0011200D01*
X0029689Y0011976D01*
X0031124Y0013411D01*
X0031900Y0015286D01*
X0031900Y0015803D01*
X0032476Y0014411D01*
X0033911Y0012976D01*
X0035786Y0012200D01*
X0037814Y0012200D01*
X0039689Y0012976D01*
X0041124Y0014411D01*
X0041700Y0015803D01*
X0041700Y0015286D01*
X0042476Y0013411D01*
X0043911Y0011976D01*
X0045786Y0011200D01*
X0047814Y0011200D01*
X0049689Y0011976D01*
X0051124Y0013411D01*
X0051900Y0015286D01*
X0051900Y0015803D01*
X0052476Y0014411D01*
X0053911Y0012976D01*
X0055786Y0012200D01*
X0057814Y0012200D01*
X0059689Y0012976D01*
X0061124Y0014411D01*
X0061700Y0015803D01*
X0061700Y0015286D01*
X0062476Y0013411D01*
X0063911Y0011976D01*
X0065786Y0011200D01*
X0067814Y0011200D01*
X0069689Y0011976D01*
X0071124Y0013411D01*
X0071900Y0015286D01*
X0071900Y0015803D01*
X0072476Y0014411D01*
X0073911Y0012976D01*
X0075786Y0012200D01*
X0077814Y0012200D01*
X0079689Y0012976D01*
X0081124Y0014411D01*
X0081700Y0015803D01*
X0081700Y0015286D01*
X0082476Y0013411D01*
X0083911Y0011976D01*
X0085786Y0011200D01*
X0087814Y0011200D01*
X0089689Y0011976D01*
X0091124Y0013411D01*
X0091900Y0015286D01*
X0091900Y0017314D01*
X0091124Y0019189D01*
X0089689Y0020624D01*
X0087814Y0021400D01*
X0086137Y0021400D01*
X0084250Y0023287D01*
X0084250Y0061550D01*
X0088431Y0061550D01*
X0088431Y0060708D01*
X0089252Y0059888D01*
X0094348Y0059888D01*
X0095168Y0060708D01*
X0095168Y0066199D01*
X0094844Y0066523D01*
X0094874Y0066541D01*
X0095209Y0066876D01*
X0095446Y0067286D01*
X0095568Y0067744D01*
X0095568Y0069962D01*
X0091984Y0069962D01*
X0091984Y0070331D01*
X0091616Y0070331D01*
X0091616Y0074112D01*
X0089595Y0074112D01*
X0089137Y0073989D01*
X0088726Y0073752D01*
X0088391Y0073417D01*
X0088154Y0073007D01*
X0088031Y0072549D01*
X0088031Y0070331D01*
X0091616Y0070331D01*
X0091616Y0069962D01*
X0088031Y0069962D01*
X0088031Y0067744D01*
X0088154Y0067286D01*
X0088391Y0066876D01*
X0088726Y0066541D01*
X0088756Y0066523D01*
X0088431Y0066199D01*
X0088431Y0065350D01*
X0079750Y0065350D01*
X0079750Y0106700D01*
X0079912Y0106700D01*
X0082800Y0109588D01*
X0085688Y0106700D01*
X0089912Y0106700D01*
X0092900Y0109688D01*
X0092900Y0113912D01*
X0090112Y0116700D01*
X0090912Y0116700D01*
X0093900Y0119688D01*
X0093900Y0123912D01*
X0090912Y0126900D01*
X0090112Y0126900D01*
X0092900Y0129688D01*
X0092900Y0133912D01*
X0089912Y0136900D01*
X0085688Y0136900D01*
X0083083Y0134295D01*
X0080078Y0137300D01*
X0078000Y0137300D01*
X0078000Y0132000D01*
X0077600Y0132000D01*
X0077600Y0137300D01*
X0075522Y0137300D01*
X0072300Y0134078D01*
X0072300Y0132000D01*
X0077600Y0132000D01*
X0077600Y0131600D01*
X0072300Y0131600D01*
X0072300Y0129522D01*
X0075522Y0126300D01*
X0076088Y0126300D01*
X0073700Y0123912D01*
X0073700Y0119688D01*
X0076488Y0116900D01*
X0075688Y0116900D01*
X0072700Y0113912D01*
X0072700Y0113500D01*
X0070313Y0113500D01*
X0069200Y0112387D01*
X0068063Y0111250D01*
X0054550Y0111250D01*
X0054550Y0180113D01*
X0056637Y0182200D01*
X0057814Y0182200D01*
X0059689Y0182976D01*
X0061124Y0184411D01*
X0061300Y0184837D01*
X0061300Y0182363D01*
X0061423Y0181905D01*
X0061660Y0181495D01*
X0061995Y0181160D01*
X0062405Y0180923D01*
X0062863Y0180800D01*
X0066600Y0180800D01*
X0066600Y0186100D01*
X0067000Y0186100D01*
X0067000Y0186500D01*
X0066600Y0186500D01*
X0066600Y0191800D01*
X0062863Y0191800D01*
X0062405Y0191677D01*
X0061995Y0191440D01*
X0061660Y0191105D01*
X0061423Y0190695D01*
X0061300Y0190237D01*
X0061300Y0189763D01*
X0061124Y0190189D01*
X0059689Y0191624D01*
X0057814Y0192400D01*
X0055786Y0192400D01*
X0053911Y0191624D01*
X0052476Y0190189D01*
X0051700Y0188314D01*
X0051700Y0187797D01*
X0051124Y0189189D01*
X0049689Y0190624D01*
X0047814Y0191400D01*
X0045786Y0191400D01*
X0043911Y0190624D01*
X0042476Y0189189D01*
X0041900Y0187797D01*
X0041900Y0188314D01*
X0041124Y0190189D01*
X0039689Y0191624D01*
X0037814Y0192400D01*
X0035786Y0192400D01*
X0033911Y0191624D01*
X0032476Y0190189D01*
X0031700Y0188314D01*
X0031700Y0186286D01*
X0032476Y0184411D01*
X0033911Y0182976D01*
X0035786Y0182200D01*
X0037814Y0182200D01*
X0039689Y0182976D01*
X0041124Y0184411D01*
X0041700Y0185803D01*
X0041700Y0185286D01*
X0042476Y0183411D01*
X0043911Y0181976D01*
X0045786Y0181200D01*
X0047814Y0181200D01*
X0049689Y0181976D01*
X0051124Y0183411D01*
X0051900Y0185286D01*
X0051900Y0185803D01*
X0052476Y0184411D01*
X0052975Y0183912D01*
X0051863Y0182800D01*
X0050750Y0181687D01*
X0050750Y0111250D01*
X0031837Y0111250D01*
X0027337Y0115750D01*
X0022387Y0115750D01*
X0022250Y0115887D01*
X0022250Y0116080D01*
X0021530Y0116800D01*
X0022250Y0117520D01*
X0022250Y0121080D01*
X0021530Y0121800D01*
X0022250Y0122520D01*
X0022250Y0125233D01*
X0023174Y0124850D01*
X0024526Y0124850D01*
X0025776Y0125368D01*
X0026732Y0126324D01*
X0027250Y0127574D01*
X0027250Y0128926D01*
X0026732Y0130176D01*
X0025776Y0131132D01*
X0024526Y0131650D01*
X0023174Y0131650D01*
X0022812Y0131500D01*
X0021830Y0131500D01*
X0021430Y0131900D01*
X0011570Y0131900D01*
X0010750Y0131080D01*
X0010750Y0127520D01*
X0011470Y0126800D01*
X0011220Y0126550D01*
X0008663Y0126550D01*
X0007550Y0125437D01*
X0004400Y0122287D01*
X0004400Y0120713D01*
X0004400Y0111263D01*
X0005513Y0110150D01*
X0035339Y0080324D01*
X0031820Y0080324D01*
X0031000Y0079504D01*
X0031000Y0073770D01*
X0030960Y0073730D01*
X0030723Y0073319D01*
X0030600Y0072861D01*
X0030600Y0071524D01*
X0030600Y0070187D01*
X0030723Y0069730D01*
X0030960Y0069319D01*
X0031000Y0069279D01*
X0031000Y0067471D01*
X0030960Y0067430D01*
X0030723Y0067020D01*
X0030600Y0066562D01*
X0030600Y0065225D01*
X0030600Y0063888D01*
X0030723Y0063430D01*
X0030960Y0063020D01*
X0031000Y0062980D01*
X0031000Y0060850D01*
X0030937Y0060850D01*
X0029350Y0062437D01*
X0028237Y0063550D01*
X0026855Y0063550D01*
X0026831Y0063572D01*
X0026072Y0063550D01*
X0025871Y0063550D01*
X0025611Y0063810D01*
X0025400Y0063810D01*
X0025400Y0063831D01*
X0024931Y0064300D01*
X0018669Y0064300D01*
X0018200Y0063831D01*
X0018200Y0063810D01*
X0017989Y0063810D01*
X0017603Y0063424D01*
X0017013Y0063424D01*
X0015900Y0062311D01*
X0015900Y0060737D01*
X0017013Y0059624D01*
X0017603Y0059624D01*
X0017935Y0059293D01*
X0017664Y0059180D01*
X0017224Y0058886D01*
X0016850Y0058512D01*
X0016556Y0058072D01*
X0016353Y0057583D01*
X0016250Y0057065D01*
X0016250Y0056800D01*
X0021800Y0056800D01*
X0027350Y0056800D01*
X0027350Y0057065D01*
X0027247Y0057583D01*
X0027044Y0058072D01*
X0026750Y0058512D01*
X0026376Y0058886D01*
X0025936Y0059180D01*
X0025665Y0059293D01*
X0025997Y0059624D01*
X0026587Y0059624D01*
X0026688Y0059725D01*
X0029363Y0057050D01*
X0029613Y0057050D01*
X0026681Y0054118D01*
X0026073Y0054100D01*
X0025872Y0054100D01*
X0025665Y0054307D01*
X0025936Y0054420D01*
X0026376Y0054714D01*
X0026750Y0055088D01*
X0027044Y0055528D01*
X0027247Y0056017D01*
X0027350Y0056535D01*
X0027350Y0056800D01*
X0021800Y0056800D01*
X0021800Y0056800D01*
X0021800Y0056800D01*
X0016250Y0056800D01*
X0016250Y0056535D01*
X0016353Y0056017D01*
X0016556Y0055528D01*
X0016850Y0055088D01*
X0017224Y0054714D01*
X0017664Y0054420D01*
X0017935Y0054307D01*
X0017603Y0053976D01*
X0017013Y0053976D01*
X0015900Y0052863D01*
X0015900Y0051289D01*
X0017013Y0050176D01*
X0017603Y0050176D01*
X0017989Y0049790D01*
X0018200Y0049790D01*
X0018200Y0049769D01*
X0018669Y0049300D01*
X0024931Y0049300D01*
X0025400Y0049769D01*
X0025400Y0049790D01*
X0025611Y0049790D01*
X0025997Y0050176D01*
X0026587Y0050176D01*
X0026711Y0050300D01*
X0028237Y0050300D01*
X0029350Y0051413D01*
X0031517Y0053580D01*
X0031820Y0053276D01*
X0037980Y0053276D01*
X0038800Y0054096D01*
X0038800Y0058850D01*
X0040387Y0058850D01*
X0042187Y0060650D01*
X0061763Y0060650D01*
X0064700Y0057713D01*
X0064800Y0057613D01*
X0064800Y0056237D01*
X0062887Y0058150D01*
X0056363Y0058150D01*
X0055250Y0057037D01*
X0052013Y0053800D01*
X0039096Y0053800D01*
X0038276Y0052980D01*
X0038276Y0046820D01*
X0039096Y0046000D01*
X0045350Y0046000D01*
X0045350Y0040387D01*
X0026363Y0021400D01*
X0025786Y0021400D01*
X0023911Y0020624D01*
X0022476Y0019189D01*
X0022300Y0018763D01*
X0022300Y0021237D01*
X0022177Y0021695D01*
X0021940Y0022105D01*
X0021605Y0022440D01*
X0021195Y0022677D01*
X0020737Y0022800D01*
X0017000Y0022800D01*
X0017000Y0017500D01*
X0016600Y0017500D01*
X0016600Y0022800D01*
X0012863Y0022800D01*
X0012405Y0022677D01*
X0011995Y0022440D01*
X0011660Y0022105D01*
X0011423Y0021695D01*
X0011300Y0021237D01*
X0011300Y0017500D01*
X0016600Y0017500D01*
X0016600Y0017100D01*
X0011300Y0017100D01*
X0011300Y0019384D02*
X0007294Y0019384D01*
X0006584Y0020982D02*
X0011300Y0020982D01*
X0012238Y0022581D02*
X0005922Y0022581D01*
X0005259Y0024179D02*
X0029142Y0024179D01*
X0030741Y0025778D02*
X0004755Y0025778D01*
X0004437Y0027376D02*
X0032339Y0027376D01*
X0033938Y0028975D02*
X0004119Y0028975D01*
X0003801Y0030573D02*
X0035536Y0030573D01*
X0037135Y0032172D02*
X0003681Y0032172D01*
X0003602Y0033770D02*
X0038733Y0033770D01*
X0040332Y0035369D02*
X0003600Y0035369D01*
X0003600Y0036967D02*
X0041930Y0036967D01*
X0043529Y0038566D02*
X0003600Y0038566D01*
X0003600Y0040164D02*
X0045127Y0040164D01*
X0045350Y0041763D02*
X0003600Y0041763D01*
X0003600Y0043361D02*
X0045350Y0043361D01*
X0045350Y0044960D02*
X0003600Y0044960D01*
X0003600Y0046558D02*
X0038538Y0046558D01*
X0038276Y0048157D02*
X0003600Y0048157D01*
X0003600Y0049755D02*
X0018213Y0049755D01*
X0015900Y0051354D02*
X0003600Y0051354D01*
X0003600Y0052952D02*
X0015990Y0052952D01*
X0017468Y0054551D02*
X0003600Y0054551D01*
X0003600Y0056149D02*
X0016327Y0056149D01*
X0016421Y0057748D02*
X0003600Y0057748D01*
X0003600Y0059346D02*
X0017881Y0059346D01*
X0015900Y0060945D02*
X0003600Y0060945D01*
X0003600Y0062543D02*
X0016132Y0062543D01*
X0018511Y0064142D02*
X0003600Y0064142D01*
X0003600Y0065740D02*
X0030600Y0065740D01*
X0030600Y0065225D02*
X0034900Y0065225D01*
X0034900Y0065225D01*
X0039200Y0065225D01*
X0039200Y0063888D01*
X0039077Y0063430D01*
X0038942Y0063195D01*
X0039150Y0062987D01*
X0039500Y0063337D01*
X0039500Y0065363D01*
X0039263Y0065600D01*
X0039200Y0065600D01*
X0039200Y0065225D01*
X0034900Y0065225D01*
X0030600Y0065225D01*
X0030600Y0064142D02*
X0025089Y0064142D01*
X0025719Y0059346D02*
X0027067Y0059346D01*
X0027179Y0057748D02*
X0028665Y0057748D01*
X0028712Y0056149D02*
X0027273Y0056149D01*
X0027114Y0054551D02*
X0026132Y0054551D01*
X0025387Y0049755D02*
X0038276Y0049755D01*
X0038276Y0051354D02*
X0029291Y0051354D01*
X0030889Y0052952D02*
X0038276Y0052952D01*
X0038800Y0054551D02*
X0052764Y0054551D01*
X0054362Y0056149D02*
X0038800Y0056149D01*
X0038800Y0057748D02*
X0055961Y0057748D01*
X0060663Y0064450D02*
X0043300Y0064450D01*
X0043300Y0066937D01*
X0041950Y0068287D01*
X0040837Y0069400D01*
X0039487Y0069400D01*
X0039250Y0069637D01*
X0039094Y0069793D01*
X0039200Y0070187D01*
X0039200Y0071524D01*
X0034900Y0071524D01*
X0034900Y0071524D01*
X0030600Y0071524D01*
X0034900Y0071524D01*
X0034900Y0071524D01*
X0039200Y0071524D01*
X0039200Y0072861D01*
X0039077Y0073319D01*
X0038840Y0073730D01*
X0038800Y0073770D01*
X0038800Y0076863D01*
X0040163Y0075500D01*
X0051024Y0075500D01*
X0050600Y0074476D01*
X0050600Y0073124D01*
X0051118Y0071874D01*
X0052074Y0070918D01*
X0053324Y0070400D01*
X0054676Y0070400D01*
X0054702Y0070411D01*
X0060663Y0064450D01*
X0059373Y0065740D02*
X0043300Y0065740D01*
X0042898Y0067339D02*
X0057774Y0067339D01*
X0056176Y0068937D02*
X0041300Y0068937D01*
X0039200Y0070536D02*
X0052995Y0070536D01*
X0051010Y0072134D02*
X0039200Y0072134D01*
X0038837Y0073733D02*
X0050600Y0073733D01*
X0050954Y0075332D02*
X0038800Y0075332D01*
X0041737Y0079300D02*
X0041237Y0079800D01*
X0064504Y0079800D01*
X0065324Y0080620D01*
X0065324Y0086780D01*
X0064504Y0087600D01*
X0052300Y0087600D01*
X0052300Y0102857D01*
X0052326Y0102868D01*
X0053282Y0103824D01*
X0053800Y0105074D01*
X0053800Y0106426D01*
X0053376Y0107450D01*
X0069637Y0107450D01*
X0071887Y0109700D01*
X0072700Y0109700D01*
X0072700Y0109688D01*
X0075688Y0106700D01*
X0075950Y0106700D01*
X0075950Y0065350D01*
X0074813Y0065350D01*
X0072600Y0063137D01*
X0072600Y0066129D01*
X0072640Y0066170D01*
X0072877Y0066580D01*
X0073000Y0067038D01*
X0073000Y0068375D01*
X0073000Y0069712D01*
X0072877Y0070170D01*
X0072640Y0070580D01*
X0072600Y0070620D01*
X0072600Y0079504D01*
X0071780Y0080324D01*
X0065620Y0080324D01*
X0064800Y0079504D01*
X0064800Y0075587D01*
X0062200Y0078187D01*
X0061087Y0079300D01*
X0041737Y0079300D01*
X0038276Y0082761D02*
X0038276Y0086780D01*
X0039096Y0087600D01*
X0040591Y0087600D01*
X0040250Y0088424D01*
X0040250Y0089776D01*
X0040768Y0091026D01*
X0041724Y0091982D01*
X0042974Y0092500D01*
X0044326Y0092500D01*
X0045350Y0092076D01*
X0045350Y0098213D01*
X0041202Y0102361D01*
X0041176Y0102350D01*
X0039824Y0102350D01*
X0038574Y0102868D01*
X0037618Y0103824D01*
X0037100Y0105074D01*
X0037100Y0106426D01*
X0037524Y0107450D01*
X0030263Y0107450D01*
X0029150Y0108563D01*
X0025763Y0111950D01*
X0021680Y0111950D01*
X0021430Y0111700D01*
X0011570Y0111700D01*
X0010750Y0112520D01*
X0010750Y0116080D01*
X0011470Y0116800D01*
X0010750Y0117520D01*
X0010750Y0121080D01*
X0011470Y0121800D01*
X0010750Y0122520D01*
X0010750Y0122750D01*
X0010237Y0122750D01*
X0008200Y0120713D01*
X0008200Y0112837D01*
X0038276Y0082761D01*
X0038276Y0083324D02*
X0037713Y0083324D01*
X0038276Y0084923D02*
X0036114Y0084923D01*
X0034516Y0086521D02*
X0038276Y0086521D01*
X0040376Y0088120D02*
X0032917Y0088120D01*
X0031319Y0089718D02*
X0040250Y0089718D01*
X0041058Y0091317D02*
X0029720Y0091317D01*
X0028122Y0092915D02*
X0045350Y0092915D01*
X0045350Y0094514D02*
X0026523Y0094514D01*
X0024925Y0096112D02*
X0045350Y0096112D01*
X0045350Y0097711D02*
X0023326Y0097711D01*
X0021728Y0099309D02*
X0044254Y0099309D01*
X0042655Y0100908D02*
X0020129Y0100908D01*
X0018531Y0102506D02*
X0039447Y0102506D01*
X0037501Y0104105D02*
X0016932Y0104105D01*
X0015334Y0105703D02*
X0037100Y0105703D01*
X0037463Y0107302D02*
X0013735Y0107302D01*
X0012137Y0108900D02*
X0028813Y0108900D01*
X0027214Y0110499D02*
X0010538Y0110499D01*
X0011173Y0112097D02*
X0008940Y0112097D01*
X0008200Y0113696D02*
X0010750Y0113696D01*
X0010750Y0115294D02*
X0008200Y0115294D01*
X0008200Y0116893D02*
X0011377Y0116893D01*
X0010750Y0118491D02*
X0008200Y0118491D01*
X0008200Y0120090D02*
X0010750Y0120090D01*
X0011358Y0121688D02*
X0009175Y0121688D01*
X0006998Y0124885D02*
X0003600Y0124885D01*
X0003600Y0123287D02*
X0005400Y0123287D01*
X0004400Y0121688D02*
X0003600Y0121688D01*
X0003600Y0120090D02*
X0004400Y0120090D01*
X0004400Y0118491D02*
X0003600Y0118491D01*
X0003600Y0116893D02*
X0004400Y0116893D01*
X0004400Y0115294D02*
X0003600Y0115294D01*
X0003600Y0113696D02*
X0004400Y0113696D01*
X0004400Y0112097D02*
X0003600Y0112097D01*
X0003600Y0110499D02*
X0005164Y0110499D01*
X0003600Y0108900D02*
X0006763Y0108900D01*
X0008361Y0107302D02*
X0003600Y0107302D01*
X0003600Y0105703D02*
X0009960Y0105703D01*
X0011558Y0104105D02*
X0003600Y0104105D01*
X0003600Y0102506D02*
X0013157Y0102506D01*
X0014755Y0100908D02*
X0003600Y0100908D01*
X0003600Y0099309D02*
X0016354Y0099309D01*
X0017952Y0097711D02*
X0003600Y0097711D01*
X0003600Y0096112D02*
X0019551Y0096112D01*
X0021149Y0094514D02*
X0003600Y0094514D01*
X0003600Y0092915D02*
X0022748Y0092915D01*
X0024346Y0091317D02*
X0003600Y0091317D01*
X0003600Y0089718D02*
X0025945Y0089718D01*
X0027543Y0088120D02*
X0003600Y0088120D01*
X0003600Y0086521D02*
X0029142Y0086521D01*
X0030740Y0084923D02*
X0003600Y0084923D01*
X0003600Y0083324D02*
X0032339Y0083324D01*
X0033937Y0081726D02*
X0003600Y0081726D01*
X0003600Y0080127D02*
X0031624Y0080127D01*
X0031000Y0078529D02*
X0003600Y0078529D01*
X0003600Y0076930D02*
X0031000Y0076930D01*
X0031000Y0075332D02*
X0003600Y0075332D01*
X0003600Y0073733D02*
X0030963Y0073733D01*
X0030600Y0072134D02*
X0003600Y0072134D01*
X0003600Y0070536D02*
X0030600Y0070536D01*
X0031000Y0068937D02*
X0003600Y0068937D01*
X0003600Y0067339D02*
X0030907Y0067339D01*
X0031000Y0062543D02*
X0029244Y0062543D01*
X0030842Y0060945D02*
X0031000Y0060945D01*
X0034900Y0065225D02*
X0034900Y0065225D01*
X0039200Y0064142D02*
X0039500Y0064142D01*
X0040883Y0059346D02*
X0063067Y0059346D01*
X0063289Y0057748D02*
X0064665Y0057748D01*
X0067761Y0053276D02*
X0071780Y0053276D01*
X0072600Y0054096D01*
X0072600Y0054153D01*
X0073574Y0053750D01*
X0074926Y0053750D01*
X0076176Y0054268D01*
X0077132Y0055224D01*
X0077650Y0056474D01*
X0077650Y0057826D01*
X0077132Y0059076D01*
X0076176Y0060032D01*
X0075252Y0060415D01*
X0076387Y0061550D01*
X0080450Y0061550D01*
X0080450Y0021713D01*
X0082725Y0019438D01*
X0082476Y0019189D01*
X0081900Y0017797D01*
X0081900Y0018314D01*
X0081124Y0020189D01*
X0079689Y0021624D01*
X0077814Y0022400D01*
X0075786Y0022400D01*
X0073911Y0021624D01*
X0072476Y0020189D01*
X0071700Y0018314D01*
X0071700Y0017797D01*
X0071124Y0019189D01*
X0069689Y0020624D01*
X0069400Y0020743D01*
X0069400Y0020813D01*
X0069850Y0021263D01*
X0069850Y0051187D01*
X0068737Y0052300D01*
X0067761Y0053276D01*
X0068085Y0052952D02*
X0080450Y0052952D01*
X0080450Y0051354D02*
X0069683Y0051354D01*
X0069850Y0049755D02*
X0080450Y0049755D01*
X0080450Y0048157D02*
X0069850Y0048157D01*
X0069850Y0046558D02*
X0080450Y0046558D01*
X0080450Y0044960D02*
X0069850Y0044960D01*
X0069850Y0043361D02*
X0080450Y0043361D01*
X0080450Y0041763D02*
X0069850Y0041763D01*
X0069850Y0040164D02*
X0080450Y0040164D01*
X0080450Y0038566D02*
X0069850Y0038566D01*
X0069850Y0036967D02*
X0080450Y0036967D01*
X0080450Y0035369D02*
X0069850Y0035369D01*
X0069850Y0033770D02*
X0080450Y0033770D01*
X0080450Y0032172D02*
X0069850Y0032172D01*
X0069850Y0030573D02*
X0080450Y0030573D01*
X0080450Y0028975D02*
X0069850Y0028975D01*
X0069850Y0027376D02*
X0080450Y0027376D01*
X0080450Y0025778D02*
X0069850Y0025778D01*
X0069850Y0024179D02*
X0080450Y0024179D01*
X0080450Y0022581D02*
X0069850Y0022581D01*
X0069569Y0020982D02*
X0073270Y0020982D01*
X0072143Y0019384D02*
X0070929Y0019384D01*
X0071611Y0014588D02*
X0072403Y0014588D01*
X0073898Y0012990D02*
X0070702Y0012990D01*
X0068276Y0011391D02*
X0085324Y0011391D01*
X0085564Y0008194D02*
X0018036Y0008194D01*
X0015644Y0009793D02*
X0087956Y0009793D01*
X0088276Y0011391D02*
X0089885Y0011391D01*
X0090702Y0012990D02*
X0091484Y0012990D01*
X0091611Y0014588D02*
X0093082Y0014588D01*
X0094170Y0016187D02*
X0091900Y0016187D01*
X0091705Y0017785D02*
X0095238Y0017785D01*
X0096306Y0019384D02*
X0090929Y0019384D01*
X0088823Y0020982D02*
X0097016Y0020982D01*
X0097678Y0022581D02*
X0084956Y0022581D01*
X0084250Y0024179D02*
X0098341Y0024179D01*
X0098845Y0025778D02*
X0084250Y0025778D01*
X0084250Y0027376D02*
X0099163Y0027376D01*
X0099481Y0028975D02*
X0084250Y0028975D01*
X0084250Y0030573D02*
X0099799Y0030573D01*
X0099919Y0032172D02*
X0084250Y0032172D01*
X0084250Y0033770D02*
X0099998Y0033770D01*
X0100000Y0035369D02*
X0084250Y0035369D01*
X0084250Y0036967D02*
X0100000Y0036967D01*
X0100000Y0038566D02*
X0084250Y0038566D01*
X0084250Y0040164D02*
X0100000Y0040164D01*
X0100000Y0041763D02*
X0084250Y0041763D01*
X0084250Y0043361D02*
X0100000Y0043361D01*
X0100000Y0044960D02*
X0084250Y0044960D01*
X0084250Y0046558D02*
X0100000Y0046558D01*
X0100000Y0048157D02*
X0084250Y0048157D01*
X0084250Y0049755D02*
X0100000Y0049755D01*
X0100000Y0051354D02*
X0084250Y0051354D01*
X0084250Y0052952D02*
X0100000Y0052952D01*
X0100000Y0054551D02*
X0084250Y0054551D01*
X0084250Y0056149D02*
X0100000Y0056149D01*
X0100000Y0057748D02*
X0084250Y0057748D01*
X0084250Y0059346D02*
X0100000Y0059346D01*
X0100000Y0060945D02*
X0095168Y0060945D01*
X0095168Y0062543D02*
X0100000Y0062543D01*
X0100000Y0064142D02*
X0095168Y0064142D01*
X0095168Y0065740D02*
X0100000Y0065740D01*
X0100000Y0067339D02*
X0095460Y0067339D01*
X0095568Y0068937D02*
X0100000Y0068937D01*
X0100000Y0070536D02*
X0095568Y0070536D01*
X0095568Y0070331D02*
X0095568Y0072549D01*
X0095446Y0073007D01*
X0095209Y0073417D01*
X0094874Y0073752D01*
X0094463Y0073989D01*
X0094005Y0074112D01*
X0091984Y0074112D01*
X0091984Y0070331D01*
X0095568Y0070331D01*
X0095568Y0072134D02*
X0100000Y0072134D01*
X0100000Y0073733D02*
X0094893Y0073733D01*
X0091984Y0073733D02*
X0091616Y0073733D01*
X0091616Y0072134D02*
X0091984Y0072134D01*
X0091984Y0070536D02*
X0091616Y0070536D01*
X0088707Y0073733D02*
X0079750Y0073733D01*
X0079750Y0072134D02*
X0088031Y0072134D01*
X0088031Y0070536D02*
X0079750Y0070536D01*
X0079750Y0068937D02*
X0088031Y0068937D01*
X0088140Y0067339D02*
X0079750Y0067339D01*
X0079750Y0065740D02*
X0088431Y0065740D01*
X0088431Y0060945D02*
X0084250Y0060945D01*
X0080450Y0060945D02*
X0075782Y0060945D01*
X0076862Y0059346D02*
X0080450Y0059346D01*
X0080450Y0057748D02*
X0077650Y0057748D01*
X0077516Y0056149D02*
X0080450Y0056149D01*
X0080450Y0054551D02*
X0076459Y0054551D01*
X0073605Y0064142D02*
X0072600Y0064142D01*
X0072600Y0065740D02*
X0075950Y0065740D01*
X0075950Y0067339D02*
X0073000Y0067339D01*
X0073000Y0068375D02*
X0068700Y0068375D01*
X0073000Y0068375D01*
X0073000Y0068937D02*
X0075950Y0068937D01*
X0075950Y0070536D02*
X0072666Y0070536D01*
X0072600Y0072134D02*
X0075950Y0072134D01*
X0075950Y0073733D02*
X0072600Y0073733D01*
X0072600Y0075332D02*
X0075950Y0075332D01*
X0075950Y0076930D02*
X0072600Y0076930D01*
X0072600Y0078529D02*
X0075950Y0078529D01*
X0075950Y0080127D02*
X0071976Y0080127D01*
X0075950Y0081726D02*
X0065324Y0081726D01*
X0065324Y0083324D02*
X0075950Y0083324D01*
X0075950Y0084923D02*
X0065324Y0084923D01*
X0065324Y0086521D02*
X0075950Y0086521D01*
X0075950Y0088120D02*
X0052300Y0088120D01*
X0052300Y0089718D02*
X0075950Y0089718D01*
X0075950Y0091317D02*
X0052300Y0091317D01*
X0052300Y0092915D02*
X0075950Y0092915D01*
X0075950Y0094514D02*
X0052300Y0094514D01*
X0052300Y0096112D02*
X0075950Y0096112D01*
X0075950Y0097711D02*
X0052300Y0097711D01*
X0052300Y0099309D02*
X0075950Y0099309D01*
X0075950Y0100908D02*
X0052300Y0100908D01*
X0052300Y0102506D02*
X0075950Y0102506D01*
X0075950Y0104105D02*
X0053399Y0104105D01*
X0053800Y0105703D02*
X0075950Y0105703D01*
X0075086Y0107302D02*
X0053437Y0107302D01*
X0054550Y0112097D02*
X0068910Y0112097D01*
X0071087Y0108900D02*
X0073487Y0108900D01*
X0072700Y0113696D02*
X0054550Y0113696D01*
X0054550Y0115294D02*
X0074082Y0115294D01*
X0075680Y0116893D02*
X0054550Y0116893D01*
X0054550Y0118491D02*
X0074896Y0118491D01*
X0073700Y0120090D02*
X0054550Y0120090D01*
X0054550Y0121688D02*
X0073700Y0121688D01*
X0073700Y0123287D02*
X0054550Y0123287D01*
X0054550Y0124885D02*
X0074673Y0124885D01*
X0075338Y0126484D02*
X0054550Y0126484D01*
X0054550Y0128082D02*
X0073739Y0128082D01*
X0072300Y0129681D02*
X0054550Y0129681D01*
X0054550Y0131279D02*
X0072300Y0131279D01*
X0072300Y0132878D02*
X0054550Y0132878D01*
X0054550Y0134476D02*
X0072698Y0134476D01*
X0074297Y0136075D02*
X0054550Y0136075D01*
X0054550Y0137673D02*
X0100000Y0137673D01*
X0100000Y0136075D02*
X0090738Y0136075D01*
X0092336Y0134476D02*
X0100000Y0134476D01*
X0100000Y0132878D02*
X0092900Y0132878D01*
X0092900Y0131279D02*
X0100000Y0131279D01*
X0100000Y0129681D02*
X0092893Y0129681D01*
X0091295Y0128082D02*
X0100000Y0128082D01*
X0100000Y0126484D02*
X0091329Y0126484D01*
X0092927Y0124885D02*
X0100000Y0124885D01*
X0100000Y0123287D02*
X0093900Y0123287D01*
X0093900Y0121688D02*
X0100000Y0121688D01*
X0100000Y0120090D02*
X0093900Y0120090D01*
X0092704Y0118491D02*
X0100000Y0118491D01*
X0100000Y0116893D02*
X0091105Y0116893D01*
X0091518Y0115294D02*
X0100000Y0115294D01*
X0100000Y0113696D02*
X0092900Y0113696D01*
X0092900Y0112097D02*
X0100000Y0112097D01*
X0100000Y0110499D02*
X0092900Y0110499D01*
X0092113Y0108900D02*
X0100000Y0108900D01*
X0100000Y0107302D02*
X0090514Y0107302D01*
X0085086Y0107302D02*
X0080514Y0107302D01*
X0079750Y0105703D02*
X0100000Y0105703D01*
X0100000Y0104105D02*
X0079750Y0104105D01*
X0079750Y0102506D02*
X0100000Y0102506D01*
X0100000Y0100908D02*
X0079750Y0100908D01*
X0079750Y0099309D02*
X0100000Y0099309D01*
X0100000Y0097711D02*
X0079750Y0097711D01*
X0079750Y0096112D02*
X0100000Y0096112D01*
X0100000Y0094514D02*
X0079750Y0094514D01*
X0079750Y0092915D02*
X0100000Y0092915D01*
X0100000Y0091317D02*
X0079750Y0091317D01*
X0079750Y0089718D02*
X0100000Y0089718D01*
X0100000Y0088120D02*
X0079750Y0088120D01*
X0079750Y0086521D02*
X0100000Y0086521D01*
X0100000Y0084923D02*
X0079750Y0084923D01*
X0079750Y0083324D02*
X0100000Y0083324D01*
X0100000Y0081726D02*
X0079750Y0081726D01*
X0079750Y0080127D02*
X0100000Y0080127D01*
X0100000Y0078529D02*
X0079750Y0078529D01*
X0079750Y0076930D02*
X0100000Y0076930D01*
X0100000Y0075332D02*
X0079750Y0075332D01*
X0068700Y0068375D02*
X0068700Y0068375D01*
X0068700Y0068375D01*
X0064400Y0068375D01*
X0064400Y0069712D01*
X0064523Y0070170D01*
X0064640Y0070373D01*
X0059513Y0075500D01*
X0056976Y0075500D01*
X0057400Y0074476D01*
X0057400Y0073124D01*
X0057389Y0073098D01*
X0064800Y0065687D01*
X0064800Y0066129D01*
X0064760Y0066170D01*
X0064523Y0066580D01*
X0064400Y0067038D01*
X0064400Y0068375D01*
X0068700Y0068375D01*
X0064400Y0068937D02*
X0061549Y0068937D01*
X0063148Y0067339D02*
X0064400Y0067339D01*
X0064747Y0065740D02*
X0064800Y0065740D01*
X0064477Y0070536D02*
X0059951Y0070536D01*
X0058352Y0072134D02*
X0062878Y0072134D01*
X0061280Y0073733D02*
X0057400Y0073733D01*
X0057046Y0075332D02*
X0059681Y0075332D01*
X0061858Y0078529D02*
X0064800Y0078529D01*
X0064831Y0080127D02*
X0065424Y0080127D01*
X0064800Y0076930D02*
X0063457Y0076930D01*
X0082113Y0108900D02*
X0083487Y0108900D01*
X0078000Y0132878D02*
X0077600Y0132878D01*
X0077600Y0134476D02*
X0078000Y0134476D01*
X0078000Y0136075D02*
X0077600Y0136075D01*
X0081303Y0136075D02*
X0084862Y0136075D01*
X0083264Y0134476D02*
X0082902Y0134476D01*
X0100000Y0139272D02*
X0054550Y0139272D01*
X0054550Y0140870D02*
X0100000Y0140870D01*
X0100000Y0142469D02*
X0054550Y0142469D01*
X0054550Y0144068D02*
X0100000Y0144068D01*
X0100000Y0145666D02*
X0054550Y0145666D01*
X0054550Y0147265D02*
X0100000Y0147265D01*
X0100000Y0148863D02*
X0054550Y0148863D01*
X0054550Y0150462D02*
X0100000Y0150462D01*
X0100000Y0152060D02*
X0054550Y0152060D01*
X0054550Y0153659D02*
X0100000Y0153659D01*
X0100000Y0155257D02*
X0054550Y0155257D01*
X0054550Y0156856D02*
X0100000Y0156856D01*
X0100000Y0158454D02*
X0054550Y0158454D01*
X0054550Y0160053D02*
X0100000Y0160053D01*
X0100000Y0161651D02*
X0054550Y0161651D01*
X0054550Y0163250D02*
X0100000Y0163250D01*
X0100000Y0164848D02*
X0054550Y0164848D01*
X0054550Y0166447D02*
X0100000Y0166447D01*
X0100000Y0168045D02*
X0054550Y0168045D01*
X0054550Y0169644D02*
X0077913Y0169644D01*
X0077212Y0169934D02*
X0080189Y0168701D01*
X0083411Y0168701D01*
X0086388Y0169934D01*
X0088666Y0172212D01*
X0089899Y0175189D01*
X0089899Y0178411D01*
X0088666Y0181388D01*
X0086388Y0183666D01*
X0083411Y0184899D01*
X0080189Y0184899D01*
X0077212Y0183666D01*
X0074934Y0181388D01*
X0073701Y0178411D01*
X0073701Y0175189D01*
X0074934Y0172212D01*
X0077212Y0169934D01*
X0075904Y0171242D02*
X0054550Y0171242D01*
X0054550Y0172841D02*
X0074673Y0172841D01*
X0074011Y0174439D02*
X0054550Y0174439D01*
X0054550Y0176038D02*
X0073701Y0176038D01*
X0073701Y0177636D02*
X0054550Y0177636D01*
X0054550Y0179235D02*
X0074042Y0179235D01*
X0074704Y0180833D02*
X0070861Y0180833D01*
X0070737Y0180800D02*
X0071195Y0180923D01*
X0071605Y0181160D01*
X0071940Y0181495D01*
X0072177Y0181905D01*
X0072300Y0182363D01*
X0072300Y0186100D01*
X0067000Y0186100D01*
X0067000Y0180800D01*
X0070737Y0180800D01*
X0072300Y0182432D02*
X0075978Y0182432D01*
X0078091Y0184030D02*
X0072300Y0184030D01*
X0072300Y0185629D02*
X0095362Y0185629D01*
X0094294Y0187227D02*
X0072300Y0187227D01*
X0072300Y0186500D02*
X0072300Y0190237D01*
X0072177Y0190695D01*
X0071940Y0191105D01*
X0071605Y0191440D01*
X0071195Y0191677D01*
X0070737Y0191800D01*
X0067000Y0191800D01*
X0067000Y0186500D01*
X0072300Y0186500D01*
X0072300Y0188826D02*
X0093226Y0188826D01*
X0091670Y0190424D02*
X0072250Y0190424D01*
X0067000Y0190424D02*
X0066600Y0190424D01*
X0066600Y0188826D02*
X0067000Y0188826D01*
X0067000Y0187227D02*
X0066600Y0187227D01*
X0066600Y0185629D02*
X0067000Y0185629D01*
X0067000Y0184030D02*
X0066600Y0184030D01*
X0066600Y0182432D02*
X0067000Y0182432D01*
X0067000Y0180833D02*
X0066600Y0180833D01*
X0062739Y0180833D02*
X0055270Y0180833D01*
X0052857Y0184030D02*
X0051380Y0184030D01*
X0051495Y0182432D02*
X0050144Y0182432D01*
X0050750Y0180833D02*
X0005845Y0180833D01*
X0005182Y0179235D02*
X0050750Y0179235D01*
X0050750Y0177636D02*
X0004718Y0177636D01*
X0004400Y0176038D02*
X0050750Y0176038D01*
X0050750Y0174439D02*
X0004082Y0174439D01*
X0003764Y0172841D02*
X0050750Y0172841D01*
X0050750Y0171242D02*
X0003672Y0171242D01*
X0003600Y0169644D02*
X0050750Y0169644D01*
X0050750Y0168045D02*
X0003600Y0168045D01*
X0003600Y0166447D02*
X0050750Y0166447D01*
X0050750Y0164848D02*
X0003600Y0164848D01*
X0003600Y0163250D02*
X0050750Y0163250D01*
X0050750Y0161651D02*
X0003600Y0161651D01*
X0003600Y0160053D02*
X0050750Y0160053D01*
X0050750Y0158454D02*
X0003600Y0158454D01*
X0003600Y0156856D02*
X0050750Y0156856D01*
X0050750Y0155257D02*
X0003600Y0155257D01*
X0003600Y0153659D02*
X0050750Y0153659D01*
X0050750Y0152060D02*
X0003600Y0152060D01*
X0003600Y0150462D02*
X0050750Y0150462D01*
X0050750Y0148863D02*
X0003600Y0148863D01*
X0003600Y0147265D02*
X0050750Y0147265D01*
X0050750Y0145666D02*
X0003600Y0145666D01*
X0003600Y0144068D02*
X0050750Y0144068D01*
X0050750Y0142469D02*
X0003600Y0142469D01*
X0003600Y0140870D02*
X0050750Y0140870D01*
X0050750Y0139272D02*
X0003600Y0139272D01*
X0003600Y0137673D02*
X0050750Y0137673D01*
X0050750Y0136075D02*
X0003600Y0136075D01*
X0003600Y0134476D02*
X0050750Y0134476D01*
X0050750Y0132878D02*
X0003600Y0132878D01*
X0003600Y0131279D02*
X0010950Y0131279D01*
X0010750Y0129681D02*
X0003600Y0129681D01*
X0003600Y0128082D02*
X0010750Y0128082D01*
X0008597Y0126484D02*
X0003600Y0126484D01*
X0021642Y0121688D02*
X0031958Y0121688D01*
X0032070Y0121800D02*
X0031350Y0121080D01*
X0031350Y0117520D01*
X0032070Y0116800D01*
X0031350Y0116080D01*
X0031350Y0112520D01*
X0032170Y0111700D01*
X0042030Y0111700D01*
X0042850Y0112520D01*
X0042850Y0116080D01*
X0042130Y0116800D01*
X0042850Y0117520D01*
X0042850Y0121080D01*
X0042130Y0121800D01*
X0042850Y0122520D01*
X0042850Y0126080D01*
X0042375Y0126555D01*
X0042555Y0126660D01*
X0042890Y0126995D01*
X0043127Y0127405D01*
X0043250Y0127863D01*
X0043250Y0129300D01*
X0043250Y0130737D01*
X0043127Y0131195D01*
X0042890Y0131605D01*
X0042555Y0131940D01*
X0042145Y0132177D01*
X0041687Y0132300D01*
X0037100Y0132300D01*
X0037100Y0129300D01*
X0037100Y0129300D01*
X0043250Y0129300D01*
X0037100Y0129300D01*
X0037100Y0129300D01*
X0037100Y0132300D01*
X0032513Y0132300D01*
X0032055Y0132177D01*
X0031645Y0131940D01*
X0031310Y0131605D01*
X0031073Y0131195D01*
X0030950Y0130737D01*
X0030950Y0129300D01*
X0037100Y0129300D01*
X0037100Y0129300D01*
X0030950Y0129300D01*
X0030950Y0127863D01*
X0031073Y0127405D01*
X0031310Y0126995D01*
X0031645Y0126660D01*
X0031825Y0126555D01*
X0031350Y0126080D01*
X0031350Y0122520D01*
X0032070Y0121800D01*
X0031350Y0123287D02*
X0022250Y0123287D01*
X0022250Y0124885D02*
X0023088Y0124885D01*
X0024612Y0124885D02*
X0031350Y0124885D01*
X0031754Y0126484D02*
X0026799Y0126484D01*
X0027250Y0128082D02*
X0030950Y0128082D01*
X0030950Y0129681D02*
X0026937Y0129681D01*
X0025421Y0131279D02*
X0031122Y0131279D01*
X0037100Y0131279D02*
X0037100Y0131279D01*
X0037100Y0129681D02*
X0037100Y0129681D01*
X0042446Y0126484D02*
X0050750Y0126484D01*
X0050750Y0128082D02*
X0043250Y0128082D01*
X0043250Y0129681D02*
X0050750Y0129681D01*
X0050750Y0131279D02*
X0043078Y0131279D01*
X0042850Y0124885D02*
X0050750Y0124885D01*
X0050750Y0123287D02*
X0042850Y0123287D01*
X0042242Y0121688D02*
X0050750Y0121688D01*
X0050750Y0120090D02*
X0042850Y0120090D01*
X0042850Y0118491D02*
X0050750Y0118491D01*
X0050750Y0116893D02*
X0042223Y0116893D01*
X0042850Y0115294D02*
X0050750Y0115294D01*
X0050750Y0113696D02*
X0042850Y0113696D01*
X0042427Y0112097D02*
X0050750Y0112097D01*
X0031773Y0112097D02*
X0030990Y0112097D01*
X0031350Y0113696D02*
X0029391Y0113696D01*
X0027793Y0115294D02*
X0031350Y0115294D01*
X0031977Y0116893D02*
X0021623Y0116893D01*
X0022250Y0118491D02*
X0031350Y0118491D01*
X0031350Y0120090D02*
X0022250Y0120090D01*
X0035226Y0182432D02*
X0006507Y0182432D01*
X0007169Y0184030D02*
X0032857Y0184030D01*
X0031972Y0185629D02*
X0008237Y0185629D01*
X0009306Y0187227D02*
X0031700Y0187227D01*
X0031912Y0188826D02*
X0010374Y0188826D01*
X0011930Y0190424D02*
X0032712Y0190424D01*
X0034875Y0192023D02*
X0013529Y0192023D01*
X0015365Y0193621D02*
X0088235Y0193621D01*
X0090071Y0192023D02*
X0058725Y0192023D01*
X0060888Y0190424D02*
X0061350Y0190424D01*
X0061300Y0184030D02*
X0060743Y0184030D01*
X0061300Y0182432D02*
X0058374Y0182432D01*
X0054875Y0192023D02*
X0038725Y0192023D01*
X0040888Y0190424D02*
X0043712Y0190424D01*
X0042326Y0188826D02*
X0041688Y0188826D01*
X0041628Y0185629D02*
X0041700Y0185629D01*
X0042220Y0184030D02*
X0040743Y0184030D01*
X0038374Y0182432D02*
X0043456Y0182432D01*
X0049888Y0190424D02*
X0052712Y0190424D01*
X0051912Y0188826D02*
X0051274Y0188826D01*
X0051900Y0185629D02*
X0051972Y0185629D01*
X0079236Y0198417D02*
X0024364Y0198417D01*
X0020504Y0196818D02*
X0083096Y0196818D01*
X0085842Y0195220D02*
X0017758Y0195220D01*
X0085509Y0184030D02*
X0096431Y0184030D01*
X0097093Y0182432D02*
X0087622Y0182432D01*
X0088896Y0180833D02*
X0097755Y0180833D01*
X0098418Y0179235D02*
X0089558Y0179235D01*
X0089899Y0177636D02*
X0098882Y0177636D01*
X0099200Y0176038D02*
X0089899Y0176038D01*
X0089589Y0174439D02*
X0099518Y0174439D01*
X0099836Y0172841D02*
X0088927Y0172841D01*
X0087696Y0171242D02*
X0099928Y0171242D01*
X0100000Y0169644D02*
X0085687Y0169644D01*
X0060950Y0039800D02*
X0059624Y0039800D01*
X0058600Y0040224D01*
X0058600Y0025537D01*
X0058837Y0025300D01*
X0059950Y0024187D01*
X0059950Y0021362D01*
X0061124Y0020189D01*
X0061900Y0018314D01*
X0061900Y0017797D01*
X0062476Y0019189D01*
X0063911Y0020624D01*
X0065600Y0021323D01*
X0065600Y0022387D01*
X0066050Y0022837D01*
X0066050Y0037074D01*
X0065026Y0036650D01*
X0063674Y0036650D01*
X0062424Y0037168D01*
X0061468Y0038124D01*
X0060950Y0039374D01*
X0060950Y0039800D01*
X0061285Y0038566D02*
X0058600Y0038566D01*
X0058600Y0040164D02*
X0058744Y0040164D01*
X0058600Y0036967D02*
X0062908Y0036967D01*
X0065792Y0036967D02*
X0066050Y0036967D01*
X0066050Y0035369D02*
X0058600Y0035369D01*
X0058600Y0033770D02*
X0066050Y0033770D01*
X0066050Y0032172D02*
X0058600Y0032172D01*
X0058600Y0030573D02*
X0066050Y0030573D01*
X0066050Y0028975D02*
X0058600Y0028975D01*
X0058600Y0027376D02*
X0066050Y0027376D01*
X0066050Y0025778D02*
X0058600Y0025778D01*
X0059950Y0024179D02*
X0066050Y0024179D01*
X0065794Y0022581D02*
X0059950Y0022581D01*
X0060330Y0020982D02*
X0064777Y0020982D01*
X0062671Y0019384D02*
X0061457Y0019384D01*
X0061197Y0014588D02*
X0061989Y0014588D01*
X0062898Y0012990D02*
X0059702Y0012990D01*
X0053898Y0012990D02*
X0050702Y0012990D01*
X0051611Y0014588D02*
X0052403Y0014588D01*
X0048276Y0011391D02*
X0065324Y0011391D01*
X0079702Y0012990D02*
X0082898Y0012990D01*
X0081989Y0014588D02*
X0081197Y0014588D01*
X0081457Y0019384D02*
X0082671Y0019384D01*
X0081181Y0020982D02*
X0080330Y0020982D01*
X0082646Y0006596D02*
X0020954Y0006596D01*
X0024813Y0004997D02*
X0078787Y0004997D01*
X0045324Y0011391D02*
X0028276Y0011391D01*
X0030702Y0012990D02*
X0033898Y0012990D01*
X0032403Y0014588D02*
X0031611Y0014588D01*
X0027544Y0022581D02*
X0021362Y0022581D01*
X0022300Y0020982D02*
X0024777Y0020982D01*
X0022671Y0019384D02*
X0022300Y0019384D01*
X0022200Y0012990D02*
X0022898Y0012990D01*
X0025324Y0011391D02*
X0013715Y0011391D01*
X0016600Y0012990D02*
X0017000Y0012990D01*
X0017000Y0014588D02*
X0016600Y0014588D01*
X0016600Y0016187D02*
X0017000Y0016187D01*
X0017000Y0017785D02*
X0016600Y0017785D01*
X0016600Y0019384D02*
X0017000Y0019384D01*
X0017000Y0020982D02*
X0016600Y0020982D01*
X0016600Y0022581D02*
X0017000Y0022581D01*
X0011300Y0014588D02*
X0010518Y0014588D01*
X0039702Y0012990D02*
X0042898Y0012990D01*
X0041989Y0014588D02*
X0041197Y0014588D01*
D20*
X0061800Y0031800D03*
X0076800Y0036800D03*
X0074300Y0084300D03*
X0066800Y0091800D03*
X0084300Y0084300D03*
X0036800Y0091800D03*
X0024300Y0084300D03*
D21*
X0040500Y0105750D03*
X0043650Y0089100D03*
X0050400Y0105750D03*
X0054000Y0073800D03*
X0060300Y0043200D03*
X0064350Y0040050D03*
X0074250Y0057150D03*
X0023850Y0128250D03*
M02*
