G75*
%MOIN*%
%OFA0B0*%
%FSLAX25Y25*%
%IPPOS*%
%LPD*%
%AMOC8*
5,1,8,0,0,1.08239X$1,22.5*
%
%ADD10C,0.12998*%
%ADD11R,0.04337X0.04731*%
%ADD12R,0.07800X0.07800*%
%ADD13C,0.07800*%
%ADD14OC8,0.07800*%
%ADD15R,0.09100X0.02800*%
%ADD16R,0.05400X0.02600*%
%ADD17R,0.02600X0.05400*%
%ADD18C,0.02172*%
%ADD19R,0.06040X0.13760*%
D10*
X0081800Y0176800D03*
D11*
X0091800Y0070146D03*
X0091800Y0063454D03*
D12*
X0016800Y0017300D03*
X0066800Y0186300D03*
D13*
X0056800Y0187300D03*
X0046800Y0186300D03*
X0036800Y0187300D03*
X0036800Y0017300D03*
X0026800Y0016300D03*
X0046800Y0016300D03*
X0056800Y0017300D03*
X0066800Y0016300D03*
X0076800Y0017300D03*
X0086800Y0016300D03*
D14*
X0087800Y0111800D03*
X0088800Y0121800D03*
X0087800Y0131800D03*
X0078800Y0121800D03*
X0077800Y0111800D03*
X0077800Y0131800D03*
D15*
X0037100Y0129300D03*
X0037100Y0124300D03*
X0037100Y0119300D03*
X0037100Y0114300D03*
X0016500Y0114300D03*
X0016500Y0119300D03*
X0016500Y0124300D03*
X0016500Y0129300D03*
D16*
X0034900Y0077824D03*
X0034900Y0074674D03*
X0034900Y0071524D03*
X0034900Y0068375D03*
X0034900Y0065225D03*
X0034900Y0062076D03*
X0034900Y0058926D03*
X0034900Y0055776D03*
X0068700Y0055776D03*
X0068700Y0058926D03*
X0068700Y0062076D03*
X0068700Y0065225D03*
X0068700Y0068375D03*
X0068700Y0071524D03*
X0068700Y0074674D03*
X0068700Y0077824D03*
D17*
X0062824Y0083700D03*
X0059674Y0083700D03*
X0056524Y0083700D03*
X0053375Y0083700D03*
X0050225Y0083700D03*
X0047076Y0083700D03*
X0043926Y0083700D03*
X0040776Y0083700D03*
X0040776Y0049900D03*
X0043926Y0049900D03*
X0047076Y0049900D03*
X0050225Y0049900D03*
X0053375Y0049900D03*
X0056524Y0049900D03*
X0059674Y0049900D03*
X0062824Y0049900D03*
D18*
X0024664Y0052076D02*
X0018936Y0052076D01*
X0018936Y0056800D02*
X0024664Y0056800D01*
X0024664Y0061524D02*
X0018936Y0061524D01*
D19*
X0021790Y0056810D03*
M02*
