%
M48
M72
T01C0.0197
T02C0.0240
T03C0.0400
T04C0.1260
%
T01
X2430Y8430
X3680Y9180
X6680Y9180
X7430Y8430
X8430Y8430
X7680Y3680
X6180Y3180
T02
X6435Y4005
X6030Y4320
X7425Y5715
X5400Y7380
X4365Y8910
X4050Y10575
X5040Y10575
X2385Y12825
T03
X1680Y1730
X2680Y1630
X3680Y1730
X4680Y1630
X5680Y1730
X6680Y1630
X7680Y1730
X8680Y1630
X8780Y11180
X8880Y12180
X8780Y13180
X7880Y12180
X7780Y11180
X7780Y13180
X6680Y18630
X5680Y18730
X4680Y18630
X3680Y18730
T04
X8180Y17680
M30
