G75*
%MOIN*%
%OFA0B0*%
%FSLAX25Y25*%
%IPPOS*%
%LPD*%
%AMOC8*
5,1,8,0,0,1.08239X$1,22.5*
%
%ADD10C,0.00000*%
%ADD11C,0.01200*%
%ADD12C,0.00600*%
%ADD13C,0.00500*%
%ADD14C,0.00591*%
D10*
X0001800Y0033816D02*
X0001800Y0169784D01*
X0001810Y0170570D01*
X0001839Y0171355D01*
X0001887Y0172139D01*
X0001954Y0172922D01*
X0002041Y0173703D01*
X0002147Y0174482D01*
X0002271Y0175258D01*
X0002415Y0176030D01*
X0002578Y0176799D01*
X0002759Y0177563D01*
X0002960Y0178323D01*
X0003179Y0179078D01*
X0003416Y0179827D01*
X0003672Y0180570D01*
X0003945Y0181306D01*
X0004237Y0182036D01*
X0004547Y0182758D01*
X0004874Y0183473D01*
X0005219Y0184179D01*
X0005580Y0184876D01*
X0005959Y0185565D01*
X0006355Y0186244D01*
X0006767Y0186912D01*
X0007196Y0187571D01*
X0007640Y0188219D01*
X0008101Y0188856D01*
X0008576Y0189481D01*
X0009067Y0190095D01*
X0009573Y0190696D01*
X0010094Y0191285D01*
X0010629Y0191860D01*
X0011177Y0192423D01*
X0011740Y0192971D01*
X0012315Y0193506D01*
X0012904Y0194027D01*
X0013505Y0194533D01*
X0014119Y0195024D01*
X0014744Y0195499D01*
X0015381Y0195960D01*
X0016029Y0196404D01*
X0016688Y0196833D01*
X0017356Y0197245D01*
X0018035Y0197641D01*
X0018724Y0198020D01*
X0019421Y0198381D01*
X0020127Y0198726D01*
X0020842Y0199053D01*
X0021564Y0199363D01*
X0022294Y0199655D01*
X0023030Y0199928D01*
X0023773Y0200184D01*
X0024522Y0200421D01*
X0025277Y0200640D01*
X0026037Y0200841D01*
X0026801Y0201022D01*
X0027570Y0201185D01*
X0028342Y0201329D01*
X0029118Y0201453D01*
X0029897Y0201559D01*
X0030678Y0201646D01*
X0031461Y0201713D01*
X0032245Y0201761D01*
X0033030Y0201790D01*
X0033816Y0201800D01*
X0069784Y0201800D01*
X0075501Y0176800D02*
X0075503Y0176958D01*
X0075509Y0177116D01*
X0075519Y0177274D01*
X0075533Y0177432D01*
X0075551Y0177589D01*
X0075572Y0177746D01*
X0075598Y0177902D01*
X0075628Y0178058D01*
X0075661Y0178213D01*
X0075699Y0178366D01*
X0075740Y0178519D01*
X0075785Y0178671D01*
X0075834Y0178822D01*
X0075887Y0178971D01*
X0075943Y0179119D01*
X0076003Y0179265D01*
X0076067Y0179410D01*
X0076135Y0179553D01*
X0076206Y0179695D01*
X0076280Y0179835D01*
X0076358Y0179972D01*
X0076440Y0180108D01*
X0076524Y0180242D01*
X0076613Y0180373D01*
X0076704Y0180502D01*
X0076799Y0180629D01*
X0076896Y0180754D01*
X0076997Y0180876D01*
X0077101Y0180995D01*
X0077208Y0181112D01*
X0077318Y0181226D01*
X0077431Y0181337D01*
X0077546Y0181446D01*
X0077664Y0181551D01*
X0077785Y0181653D01*
X0077908Y0181753D01*
X0078034Y0181849D01*
X0078162Y0181942D01*
X0078292Y0182032D01*
X0078425Y0182118D01*
X0078560Y0182202D01*
X0078696Y0182281D01*
X0078835Y0182358D01*
X0078976Y0182430D01*
X0079118Y0182500D01*
X0079262Y0182565D01*
X0079408Y0182627D01*
X0079555Y0182685D01*
X0079704Y0182740D01*
X0079854Y0182791D01*
X0080005Y0182838D01*
X0080157Y0182881D01*
X0080310Y0182920D01*
X0080465Y0182956D01*
X0080620Y0182987D01*
X0080776Y0183015D01*
X0080932Y0183039D01*
X0081089Y0183059D01*
X0081247Y0183075D01*
X0081404Y0183087D01*
X0081563Y0183095D01*
X0081721Y0183099D01*
X0081879Y0183099D01*
X0082037Y0183095D01*
X0082196Y0183087D01*
X0082353Y0183075D01*
X0082511Y0183059D01*
X0082668Y0183039D01*
X0082824Y0183015D01*
X0082980Y0182987D01*
X0083135Y0182956D01*
X0083290Y0182920D01*
X0083443Y0182881D01*
X0083595Y0182838D01*
X0083746Y0182791D01*
X0083896Y0182740D01*
X0084045Y0182685D01*
X0084192Y0182627D01*
X0084338Y0182565D01*
X0084482Y0182500D01*
X0084624Y0182430D01*
X0084765Y0182358D01*
X0084904Y0182281D01*
X0085040Y0182202D01*
X0085175Y0182118D01*
X0085308Y0182032D01*
X0085438Y0181942D01*
X0085566Y0181849D01*
X0085692Y0181753D01*
X0085815Y0181653D01*
X0085936Y0181551D01*
X0086054Y0181446D01*
X0086169Y0181337D01*
X0086282Y0181226D01*
X0086392Y0181112D01*
X0086499Y0180995D01*
X0086603Y0180876D01*
X0086704Y0180754D01*
X0086801Y0180629D01*
X0086896Y0180502D01*
X0086987Y0180373D01*
X0087076Y0180242D01*
X0087160Y0180108D01*
X0087242Y0179972D01*
X0087320Y0179835D01*
X0087394Y0179695D01*
X0087465Y0179553D01*
X0087533Y0179410D01*
X0087597Y0179265D01*
X0087657Y0179119D01*
X0087713Y0178971D01*
X0087766Y0178822D01*
X0087815Y0178671D01*
X0087860Y0178519D01*
X0087901Y0178366D01*
X0087939Y0178213D01*
X0087972Y0178058D01*
X0088002Y0177902D01*
X0088028Y0177746D01*
X0088049Y0177589D01*
X0088067Y0177432D01*
X0088081Y0177274D01*
X0088091Y0177116D01*
X0088097Y0176958D01*
X0088099Y0176800D01*
X0088097Y0176642D01*
X0088091Y0176484D01*
X0088081Y0176326D01*
X0088067Y0176168D01*
X0088049Y0176011D01*
X0088028Y0175854D01*
X0088002Y0175698D01*
X0087972Y0175542D01*
X0087939Y0175387D01*
X0087901Y0175234D01*
X0087860Y0175081D01*
X0087815Y0174929D01*
X0087766Y0174778D01*
X0087713Y0174629D01*
X0087657Y0174481D01*
X0087597Y0174335D01*
X0087533Y0174190D01*
X0087465Y0174047D01*
X0087394Y0173905D01*
X0087320Y0173765D01*
X0087242Y0173628D01*
X0087160Y0173492D01*
X0087076Y0173358D01*
X0086987Y0173227D01*
X0086896Y0173098D01*
X0086801Y0172971D01*
X0086704Y0172846D01*
X0086603Y0172724D01*
X0086499Y0172605D01*
X0086392Y0172488D01*
X0086282Y0172374D01*
X0086169Y0172263D01*
X0086054Y0172154D01*
X0085936Y0172049D01*
X0085815Y0171947D01*
X0085692Y0171847D01*
X0085566Y0171751D01*
X0085438Y0171658D01*
X0085308Y0171568D01*
X0085175Y0171482D01*
X0085040Y0171398D01*
X0084904Y0171319D01*
X0084765Y0171242D01*
X0084624Y0171170D01*
X0084482Y0171100D01*
X0084338Y0171035D01*
X0084192Y0170973D01*
X0084045Y0170915D01*
X0083896Y0170860D01*
X0083746Y0170809D01*
X0083595Y0170762D01*
X0083443Y0170719D01*
X0083290Y0170680D01*
X0083135Y0170644D01*
X0082980Y0170613D01*
X0082824Y0170585D01*
X0082668Y0170561D01*
X0082511Y0170541D01*
X0082353Y0170525D01*
X0082196Y0170513D01*
X0082037Y0170505D01*
X0081879Y0170501D01*
X0081721Y0170501D01*
X0081563Y0170505D01*
X0081404Y0170513D01*
X0081247Y0170525D01*
X0081089Y0170541D01*
X0080932Y0170561D01*
X0080776Y0170585D01*
X0080620Y0170613D01*
X0080465Y0170644D01*
X0080310Y0170680D01*
X0080157Y0170719D01*
X0080005Y0170762D01*
X0079854Y0170809D01*
X0079704Y0170860D01*
X0079555Y0170915D01*
X0079408Y0170973D01*
X0079262Y0171035D01*
X0079118Y0171100D01*
X0078976Y0171170D01*
X0078835Y0171242D01*
X0078696Y0171319D01*
X0078560Y0171398D01*
X0078425Y0171482D01*
X0078292Y0171568D01*
X0078162Y0171658D01*
X0078034Y0171751D01*
X0077908Y0171847D01*
X0077785Y0171947D01*
X0077664Y0172049D01*
X0077546Y0172154D01*
X0077431Y0172263D01*
X0077318Y0172374D01*
X0077208Y0172488D01*
X0077101Y0172605D01*
X0076997Y0172724D01*
X0076896Y0172846D01*
X0076799Y0172971D01*
X0076704Y0173098D01*
X0076613Y0173227D01*
X0076524Y0173358D01*
X0076440Y0173492D01*
X0076358Y0173628D01*
X0076280Y0173765D01*
X0076206Y0173905D01*
X0076135Y0174047D01*
X0076067Y0174190D01*
X0076003Y0174335D01*
X0075943Y0174481D01*
X0075887Y0174629D01*
X0075834Y0174778D01*
X0075785Y0174929D01*
X0075740Y0175081D01*
X0075699Y0175234D01*
X0075661Y0175387D01*
X0075628Y0175542D01*
X0075598Y0175698D01*
X0075572Y0175854D01*
X0075551Y0176011D01*
X0075533Y0176168D01*
X0075519Y0176326D01*
X0075509Y0176484D01*
X0075503Y0176642D01*
X0075501Y0176800D01*
X0069784Y0201800D02*
X0070558Y0201791D01*
X0071331Y0201763D01*
X0072103Y0201716D01*
X0072874Y0201651D01*
X0073643Y0201567D01*
X0074410Y0201464D01*
X0075174Y0201343D01*
X0075935Y0201204D01*
X0076693Y0201046D01*
X0077446Y0200870D01*
X0078195Y0200675D01*
X0078939Y0200463D01*
X0079677Y0200233D01*
X0080410Y0199985D01*
X0081137Y0199719D01*
X0081857Y0199436D01*
X0082570Y0199136D01*
X0083276Y0198818D01*
X0083973Y0198484D01*
X0084663Y0198133D01*
X0085343Y0197765D01*
X0086015Y0197381D01*
X0086677Y0196981D01*
X0087329Y0196564D01*
X0087971Y0196133D01*
X0088603Y0195685D01*
X0089223Y0195223D01*
X0089832Y0194746D01*
X0090429Y0194254D01*
X0091015Y0193748D01*
X0091587Y0193228D01*
X0092148Y0192695D01*
X0092695Y0192148D01*
X0093228Y0191587D01*
X0093748Y0191015D01*
X0094254Y0190429D01*
X0094746Y0189832D01*
X0095223Y0189223D01*
X0095685Y0188603D01*
X0096133Y0187971D01*
X0096564Y0187329D01*
X0096981Y0186677D01*
X0097381Y0186015D01*
X0097765Y0185343D01*
X0098133Y0184663D01*
X0098484Y0183973D01*
X0098818Y0183276D01*
X0099136Y0182570D01*
X0099436Y0181857D01*
X0099719Y0181137D01*
X0099985Y0180410D01*
X0100233Y0179677D01*
X0100463Y0178939D01*
X0100675Y0178195D01*
X0100870Y0177446D01*
X0101046Y0176693D01*
X0101204Y0175935D01*
X0101343Y0175174D01*
X0101464Y0174410D01*
X0101567Y0173643D01*
X0101651Y0172874D01*
X0101716Y0172103D01*
X0101763Y0171331D01*
X0101791Y0170558D01*
X0101800Y0169784D01*
X0101800Y0033816D01*
X0101791Y0033042D01*
X0101763Y0032269D01*
X0101716Y0031497D01*
X0101651Y0030726D01*
X0101567Y0029957D01*
X0101464Y0029190D01*
X0101343Y0028426D01*
X0101204Y0027665D01*
X0101046Y0026907D01*
X0100870Y0026154D01*
X0100675Y0025405D01*
X0100463Y0024661D01*
X0100233Y0023923D01*
X0099985Y0023190D01*
X0099719Y0022463D01*
X0099436Y0021743D01*
X0099136Y0021030D01*
X0098818Y0020324D01*
X0098484Y0019627D01*
X0098133Y0018937D01*
X0097765Y0018257D01*
X0097381Y0017585D01*
X0096981Y0016923D01*
X0096564Y0016271D01*
X0096133Y0015629D01*
X0095685Y0014997D01*
X0095223Y0014377D01*
X0094746Y0013768D01*
X0094254Y0013171D01*
X0093748Y0012585D01*
X0093228Y0012013D01*
X0092695Y0011452D01*
X0092148Y0010905D01*
X0091587Y0010372D01*
X0091015Y0009852D01*
X0090429Y0009346D01*
X0089832Y0008854D01*
X0089223Y0008377D01*
X0088603Y0007915D01*
X0087971Y0007467D01*
X0087329Y0007036D01*
X0086677Y0006619D01*
X0086015Y0006219D01*
X0085343Y0005835D01*
X0084663Y0005467D01*
X0083973Y0005116D01*
X0083276Y0004782D01*
X0082570Y0004464D01*
X0081857Y0004164D01*
X0081137Y0003881D01*
X0080410Y0003615D01*
X0079677Y0003367D01*
X0078939Y0003137D01*
X0078195Y0002925D01*
X0077446Y0002730D01*
X0076693Y0002554D01*
X0075935Y0002396D01*
X0075174Y0002257D01*
X0074410Y0002136D01*
X0073643Y0002033D01*
X0072874Y0001949D01*
X0072103Y0001884D01*
X0071331Y0001837D01*
X0070558Y0001809D01*
X0069784Y0001800D01*
X0033816Y0001800D01*
X0033042Y0001809D01*
X0032269Y0001837D01*
X0031497Y0001884D01*
X0030726Y0001949D01*
X0029957Y0002033D01*
X0029190Y0002136D01*
X0028426Y0002257D01*
X0027665Y0002396D01*
X0026907Y0002554D01*
X0026154Y0002730D01*
X0025405Y0002925D01*
X0024661Y0003137D01*
X0023923Y0003367D01*
X0023190Y0003615D01*
X0022463Y0003881D01*
X0021743Y0004164D01*
X0021030Y0004464D01*
X0020324Y0004782D01*
X0019627Y0005116D01*
X0018937Y0005467D01*
X0018257Y0005835D01*
X0017585Y0006219D01*
X0016923Y0006619D01*
X0016271Y0007036D01*
X0015629Y0007467D01*
X0014997Y0007915D01*
X0014377Y0008377D01*
X0013768Y0008854D01*
X0013171Y0009346D01*
X0012585Y0009852D01*
X0012013Y0010372D01*
X0011452Y0010905D01*
X0010905Y0011452D01*
X0010372Y0012013D01*
X0009852Y0012585D01*
X0009346Y0013171D01*
X0008854Y0013768D01*
X0008377Y0014377D01*
X0007915Y0014997D01*
X0007467Y0015629D01*
X0007036Y0016271D01*
X0006619Y0016923D01*
X0006219Y0017585D01*
X0005835Y0018257D01*
X0005467Y0018937D01*
X0005116Y0019627D01*
X0004782Y0020324D01*
X0004464Y0021030D01*
X0004164Y0021743D01*
X0003881Y0022463D01*
X0003615Y0023190D01*
X0003367Y0023923D01*
X0003137Y0024661D01*
X0002925Y0025405D01*
X0002730Y0026154D01*
X0002554Y0026907D01*
X0002396Y0027665D01*
X0002257Y0028426D01*
X0002136Y0029190D01*
X0002033Y0029957D01*
X0001949Y0030726D01*
X0001884Y0031497D01*
X0001837Y0032269D01*
X0001809Y0033042D01*
X0001800Y0033816D01*
D11*
X0044900Y0035643D02*
X0047202Y0033341D01*
X0044900Y0035643D02*
X0044900Y0040247D01*
X0047202Y0042549D01*
X0049504Y0042549D01*
X0051806Y0040247D01*
X0051806Y0035643D01*
X0054108Y0033341D01*
X0056410Y0033341D01*
X0058712Y0035643D01*
X0058712Y0040247D01*
X0056410Y0042549D01*
X0056410Y0047153D02*
X0047202Y0047153D01*
X0044900Y0049455D01*
X0044900Y0054059D01*
X0047202Y0056361D01*
X0056410Y0056361D01*
X0058712Y0054059D01*
X0058712Y0049455D01*
X0056410Y0047153D01*
X0058712Y0060965D02*
X0044900Y0060965D01*
X0044900Y0070172D01*
X0044900Y0074776D02*
X0044900Y0081682D01*
X0047202Y0083984D01*
X0056410Y0083984D01*
X0058712Y0081682D01*
X0058712Y0074776D01*
X0044900Y0074776D01*
X0044900Y0088588D02*
X0044900Y0097796D01*
X0044900Y0102400D02*
X0058712Y0102400D01*
X0058712Y0109306D01*
X0056410Y0111608D01*
X0051806Y0111608D01*
X0049504Y0109306D01*
X0049504Y0102400D01*
X0049504Y0107004D02*
X0044900Y0111608D01*
X0044900Y0116212D02*
X0058712Y0116212D01*
X0058712Y0123118D01*
X0056410Y0125420D01*
X0051806Y0125420D01*
X0049504Y0123118D01*
X0049504Y0116212D01*
X0051806Y0130024D02*
X0051806Y0134627D01*
X0051806Y0143835D02*
X0051806Y0148439D01*
X0049504Y0157647D02*
X0058712Y0166855D01*
X0058712Y0157647D02*
X0044900Y0157647D01*
X0044900Y0153043D02*
X0044900Y0143835D01*
X0058712Y0143835D01*
X0058712Y0153043D01*
X0051806Y0159949D02*
X0044900Y0166855D01*
X0044900Y0139231D02*
X0044900Y0130024D01*
X0058712Y0130024D01*
X0058712Y0139231D01*
X0058712Y0097796D02*
X0058712Y0088588D01*
X0044900Y0088588D01*
X0051806Y0088588D02*
X0051806Y0093192D01*
D12*
X0062132Y0078779D02*
X0060965Y0077611D01*
X0060965Y0076443D01*
X0062132Y0078779D02*
X0067971Y0078779D01*
X0066803Y0081106D02*
X0067971Y0082274D01*
X0067971Y0085777D01*
X0067971Y0088104D02*
X0067971Y0090439D01*
X0069138Y0089272D02*
X0064468Y0089272D01*
X0063300Y0090439D01*
X0064468Y0092769D02*
X0066803Y0092769D01*
X0067971Y0093937D01*
X0067971Y0096272D01*
X0066803Y0097440D01*
X0065635Y0097440D01*
X0065635Y0092769D01*
X0064468Y0092769D02*
X0063300Y0093937D01*
X0063300Y0096272D01*
X0063300Y0099767D02*
X0067971Y0099767D01*
X0067971Y0100935D01*
X0066803Y0102103D01*
X0067971Y0103270D01*
X0066803Y0104438D01*
X0063300Y0104438D01*
X0063300Y0102103D02*
X0066803Y0102103D01*
X0065635Y0113763D02*
X0065635Y0117266D01*
X0066803Y0118434D01*
X0069138Y0118434D01*
X0070306Y0117266D01*
X0070306Y0113763D01*
X0063300Y0113763D01*
X0064468Y0120761D02*
X0063300Y0121929D01*
X0064468Y0123096D01*
X0063300Y0124264D01*
X0064468Y0125432D01*
X0067971Y0125432D01*
X0067971Y0127759D02*
X0067971Y0131262D01*
X0066803Y0132430D01*
X0063300Y0132430D01*
X0064468Y0134757D02*
X0063300Y0135925D01*
X0063300Y0138260D01*
X0064468Y0134757D02*
X0066803Y0134757D01*
X0067971Y0135925D01*
X0067971Y0138260D01*
X0066803Y0139428D01*
X0065635Y0139428D01*
X0065635Y0134757D01*
X0064468Y0141755D02*
X0066803Y0141755D01*
X0067971Y0142923D01*
X0067971Y0146426D01*
X0070306Y0146426D02*
X0063300Y0146426D01*
X0063300Y0142923D01*
X0064468Y0141755D01*
X0063300Y0127759D02*
X0067971Y0127759D01*
X0067971Y0120761D02*
X0064468Y0120761D01*
X0064468Y0085777D02*
X0065635Y0084609D01*
X0065635Y0082274D01*
X0066803Y0081106D01*
X0063300Y0081106D02*
X0063300Y0084609D01*
X0064468Y0085777D01*
X0063300Y0078779D02*
X0063300Y0075276D01*
X0064468Y0074108D01*
X0067971Y0074108D01*
X0069138Y0071781D02*
X0070306Y0070613D01*
X0070306Y0068278D01*
X0069138Y0067110D01*
X0067971Y0067110D01*
X0066803Y0068278D01*
X0066803Y0070613D01*
X0065635Y0071781D01*
X0064468Y0071781D01*
X0063300Y0070613D01*
X0063300Y0068278D01*
X0064468Y0067110D01*
X0064468Y0057785D02*
X0065635Y0056617D01*
X0065635Y0054282D01*
X0066803Y0053114D01*
X0067971Y0054282D01*
X0067971Y0057785D01*
X0064468Y0057785D02*
X0063300Y0056617D01*
X0063300Y0053114D01*
X0063300Y0050784D02*
X0063300Y0048449D01*
X0063300Y0049616D02*
X0067971Y0049616D01*
X0067971Y0048449D01*
X0066803Y0046121D02*
X0063300Y0046121D01*
X0063300Y0041451D02*
X0070306Y0041451D01*
X0070306Y0039124D02*
X0070306Y0034453D01*
X0070306Y0036788D02*
X0063300Y0036788D01*
X0066803Y0041451D02*
X0067971Y0042618D01*
X0067971Y0044954D01*
X0066803Y0046121D01*
X0070306Y0049616D02*
X0071474Y0049616D01*
X0070306Y0155751D02*
X0063300Y0155751D01*
X0063300Y0159254D01*
X0064468Y0160422D01*
X0066803Y0160422D01*
X0067971Y0159254D01*
X0067971Y0155751D01*
X0067971Y0162749D02*
X0064468Y0162749D01*
X0063300Y0163917D01*
X0063300Y0167420D01*
X0062132Y0167420D02*
X0060965Y0166252D01*
X0060965Y0165084D01*
X0062132Y0167420D02*
X0067971Y0167420D01*
D13*
X0039755Y0139020D02*
X0033650Y0139020D01*
X0033650Y0142072D01*
X0034668Y0143090D01*
X0036703Y0143090D01*
X0037720Y0142072D01*
X0037720Y0139020D01*
X0037720Y0145097D02*
X0034668Y0145097D01*
X0033650Y0146114D01*
X0033650Y0149167D01*
X0032632Y0149167D02*
X0031615Y0148149D01*
X0031615Y0147132D01*
X0032632Y0149167D02*
X0037720Y0149167D01*
X0037720Y0130935D02*
X0033650Y0130935D01*
X0033650Y0127883D01*
X0034668Y0126865D01*
X0037720Y0126865D01*
X0036703Y0124858D02*
X0037720Y0123841D01*
X0037720Y0121805D01*
X0036703Y0120788D01*
X0034668Y0120788D01*
X0033650Y0121805D01*
X0033650Y0123841D01*
X0034668Y0124858D01*
X0036703Y0124858D01*
X0037720Y0118781D02*
X0032632Y0118781D01*
X0031615Y0117763D01*
X0031615Y0116746D01*
X0033650Y0115728D02*
X0033650Y0118781D01*
X0033650Y0115728D02*
X0034668Y0114711D01*
X0037720Y0114711D01*
X0036703Y0106627D02*
X0034668Y0106627D01*
X0033650Y0105609D01*
X0033650Y0103574D01*
X0034668Y0102556D01*
X0036703Y0102556D01*
X0037720Y0103574D01*
X0037720Y0105609D01*
X0036703Y0106627D01*
X0037720Y0100540D02*
X0037720Y0098505D01*
X0038738Y0099522D02*
X0034668Y0099522D01*
X0033650Y0100540D01*
X0030873Y0094965D02*
X0029855Y0094965D01*
X0029855Y0091931D02*
X0028838Y0090913D01*
X0023750Y0090913D01*
X0023750Y0087889D02*
X0023750Y0084836D01*
X0024768Y0083818D01*
X0027820Y0083818D01*
X0029855Y0080784D02*
X0023750Y0080784D01*
X0023750Y0079767D02*
X0023750Y0081802D01*
X0025785Y0077760D02*
X0025785Y0073690D01*
X0024768Y0073690D02*
X0026803Y0073690D01*
X0027820Y0074707D01*
X0027820Y0076742D01*
X0026803Y0077760D01*
X0025785Y0077760D01*
X0023750Y0076742D02*
X0023750Y0074707D01*
X0024768Y0073690D01*
X0027820Y0071678D02*
X0027820Y0070660D01*
X0025785Y0068625D01*
X0023750Y0068625D02*
X0027820Y0068625D01*
X0027820Y0066618D02*
X0023750Y0066618D01*
X0023750Y0063566D01*
X0024768Y0062548D01*
X0027820Y0062548D01*
X0027820Y0060541D02*
X0027820Y0057489D01*
X0026803Y0056471D01*
X0024768Y0056471D01*
X0023750Y0057489D01*
X0023750Y0060541D01*
X0019955Y0063580D02*
X0013850Y0063580D01*
X0013850Y0060527D01*
X0014868Y0059510D01*
X0016903Y0059510D01*
X0017920Y0060527D01*
X0017920Y0063580D01*
X0016903Y0057503D02*
X0013850Y0057503D01*
X0013850Y0053432D02*
X0017920Y0053432D01*
X0017920Y0056485D01*
X0016903Y0057503D01*
X0016903Y0051425D02*
X0016903Y0047355D01*
X0017920Y0047355D02*
X0019955Y0049390D01*
X0017920Y0051425D01*
X0013850Y0051425D01*
X0013850Y0047355D02*
X0017920Y0047355D01*
X0023750Y0047369D02*
X0023750Y0044317D01*
X0024768Y0042310D02*
X0023750Y0041292D01*
X0023750Y0039257D01*
X0024768Y0038239D01*
X0028838Y0038239D01*
X0029855Y0039257D01*
X0029855Y0041292D01*
X0028838Y0042310D01*
X0026803Y0042310D01*
X0025785Y0041292D01*
X0027820Y0041292D01*
X0027820Y0039257D01*
X0025785Y0039257D01*
X0025785Y0041292D01*
X0026803Y0044317D02*
X0027820Y0045334D01*
X0027820Y0048387D01*
X0026803Y0050394D02*
X0027820Y0051411D01*
X0027820Y0053446D01*
X0026803Y0054464D01*
X0025785Y0054464D01*
X0025785Y0050394D01*
X0024768Y0050394D02*
X0026803Y0050394D01*
X0024768Y0048387D02*
X0025785Y0047369D01*
X0025785Y0045334D01*
X0026803Y0044317D01*
X0023750Y0047369D02*
X0024768Y0048387D01*
X0024768Y0050394D02*
X0023750Y0051411D01*
X0023750Y0053446D01*
X0017920Y0071664D02*
X0017920Y0073699D01*
X0018938Y0072682D02*
X0014868Y0072682D01*
X0013850Y0073699D01*
X0013850Y0075715D02*
X0019955Y0075715D01*
X0017920Y0076733D02*
X0017920Y0078768D01*
X0016903Y0079786D01*
X0013850Y0079786D01*
X0014868Y0081793D02*
X0013850Y0082810D01*
X0013850Y0084845D01*
X0014868Y0081793D02*
X0016903Y0081793D01*
X0017920Y0082810D01*
X0017920Y0084845D01*
X0016903Y0085863D01*
X0015885Y0085863D01*
X0015885Y0081793D01*
X0017920Y0076733D02*
X0016903Y0075715D01*
X0021715Y0085853D02*
X0021715Y0086871D01*
X0022732Y0087889D01*
X0027820Y0087889D01*
X0026803Y0089896D02*
X0026803Y0091931D01*
X0027820Y0093947D02*
X0027820Y0094965D01*
X0023750Y0094965D01*
X0023750Y0095982D02*
X0023750Y0093947D01*
X0024768Y0099016D02*
X0023750Y0100034D01*
X0024768Y0099016D02*
X0028838Y0099016D01*
X0027820Y0097998D02*
X0027820Y0100034D01*
X0027820Y0102050D02*
X0027820Y0106120D01*
X0023750Y0102050D01*
X0023750Y0106120D01*
X0023750Y0109145D02*
X0023750Y0110162D01*
X0024768Y0110162D01*
X0024768Y0109145D01*
X0023750Y0109145D01*
X0023750Y0110162D02*
X0021715Y0108127D01*
X0019955Y0108136D02*
X0017920Y0110172D01*
X0013850Y0110172D01*
X0013850Y0106101D02*
X0017920Y0106101D01*
X0019955Y0108136D01*
X0018938Y0104094D02*
X0019955Y0103077D01*
X0019955Y0101042D01*
X0018938Y0100024D01*
X0017920Y0100024D01*
X0016903Y0101042D01*
X0016903Y0103077D01*
X0015885Y0104094D01*
X0014868Y0104094D01*
X0013850Y0103077D01*
X0013850Y0101042D01*
X0014868Y0100024D01*
X0013850Y0098017D02*
X0019955Y0098017D01*
X0019955Y0093947D02*
X0013850Y0098017D01*
X0013850Y0093947D02*
X0019955Y0093947D01*
X0016903Y0106101D02*
X0016903Y0110172D01*
X0015885Y0118256D02*
X0015885Y0121308D01*
X0016903Y0122326D01*
X0018938Y0122326D01*
X0019955Y0121308D01*
X0019955Y0118256D01*
X0013850Y0118256D01*
X0013850Y0124333D02*
X0013850Y0126368D01*
X0013850Y0125351D02*
X0019955Y0125351D01*
X0019955Y0124333D01*
X0017920Y0129402D02*
X0017920Y0131437D01*
X0016903Y0132455D01*
X0013850Y0132455D01*
X0013850Y0129402D01*
X0014868Y0128384D01*
X0015885Y0129402D01*
X0015885Y0132455D01*
X0014868Y0134462D02*
X0013850Y0135479D01*
X0013850Y0138532D01*
X0012832Y0138532D02*
X0011815Y0137514D01*
X0011815Y0136497D01*
X0012832Y0138532D02*
X0017920Y0138532D01*
X0016903Y0140539D02*
X0017920Y0141556D01*
X0017920Y0144609D01*
X0016903Y0146616D02*
X0017920Y0147634D01*
X0017920Y0149669D01*
X0016903Y0150686D01*
X0015885Y0150686D01*
X0015885Y0146616D01*
X0014868Y0146616D02*
X0016903Y0146616D01*
X0014868Y0146616D02*
X0013850Y0147634D01*
X0013850Y0149669D01*
X0014868Y0153711D02*
X0013850Y0154728D01*
X0014868Y0153711D02*
X0018938Y0153711D01*
X0017920Y0154728D02*
X0017920Y0152693D01*
X0014868Y0144609D02*
X0015885Y0143591D01*
X0015885Y0141556D01*
X0016903Y0140539D01*
X0013850Y0143591D02*
X0014868Y0144609D01*
X0013850Y0143591D02*
X0013850Y0140539D01*
X0014868Y0134462D02*
X0017920Y0134462D01*
X0021715Y0133463D02*
X0021715Y0132445D01*
X0021715Y0133463D02*
X0022732Y0134480D01*
X0027820Y0134480D01*
X0027820Y0136487D02*
X0027820Y0139540D01*
X0026803Y0140557D01*
X0023750Y0140557D01*
X0024768Y0142565D02*
X0023750Y0143582D01*
X0023750Y0146635D01*
X0023750Y0148642D02*
X0023750Y0151694D01*
X0024768Y0152712D01*
X0025785Y0151694D01*
X0025785Y0149659D01*
X0026803Y0148642D01*
X0027820Y0149659D01*
X0027820Y0152712D01*
X0027820Y0154719D02*
X0023750Y0154719D01*
X0025785Y0154719D02*
X0027820Y0156754D01*
X0027820Y0157772D01*
X0026803Y0159783D02*
X0024768Y0159783D01*
X0023750Y0160801D01*
X0023750Y0163853D01*
X0027820Y0160801D02*
X0026803Y0159783D01*
X0027820Y0160801D02*
X0027820Y0163853D01*
X0027820Y0146635D02*
X0027820Y0143582D01*
X0026803Y0142565D01*
X0024768Y0142565D01*
X0023750Y0136487D02*
X0027820Y0136487D01*
X0027820Y0130410D02*
X0024768Y0130410D01*
X0023750Y0131428D01*
X0023750Y0134480D01*
X0024768Y0128403D02*
X0025785Y0127386D01*
X0025785Y0125350D01*
X0026803Y0124333D01*
X0027820Y0125350D01*
X0027820Y0128403D01*
X0024768Y0128403D02*
X0023750Y0127386D01*
X0023750Y0124333D01*
X0024768Y0122326D02*
X0023750Y0121308D01*
X0023750Y0119273D01*
X0024768Y0118256D01*
X0028838Y0118256D01*
X0029855Y0119273D01*
X0029855Y0121308D01*
X0028838Y0122326D01*
X0026803Y0122326D01*
X0025785Y0121308D01*
X0027820Y0121308D01*
X0027820Y0119273D01*
X0025785Y0119273D01*
X0025785Y0121308D01*
X0033650Y0090411D02*
X0034668Y0089394D01*
X0038738Y0089394D01*
X0037720Y0090411D02*
X0037720Y0088376D01*
X0036703Y0086369D02*
X0033650Y0086369D01*
X0033650Y0082299D02*
X0039755Y0082299D01*
X0037720Y0083317D02*
X0037720Y0085352D01*
X0036703Y0086369D01*
X0037720Y0083317D02*
X0036703Y0082299D01*
X0037720Y0080292D02*
X0037720Y0077239D01*
X0036703Y0076222D01*
X0034668Y0076222D01*
X0033650Y0077239D01*
X0033650Y0080292D01*
X0032632Y0080292D02*
X0037720Y0080292D01*
X0037720Y0074215D02*
X0033650Y0074215D01*
X0033650Y0071162D01*
X0034668Y0070145D01*
X0037720Y0070145D01*
X0036703Y0068138D02*
X0037720Y0067120D01*
X0037720Y0065085D01*
X0036703Y0064068D01*
X0034668Y0064068D01*
X0033650Y0065085D01*
X0033650Y0067120D01*
X0034668Y0068138D01*
X0036703Y0068138D01*
X0037720Y0062056D02*
X0037720Y0061038D01*
X0035685Y0059003D01*
X0035685Y0056996D02*
X0034668Y0056996D01*
X0033650Y0055979D01*
X0033650Y0052926D01*
X0039755Y0052926D01*
X0039755Y0055979D01*
X0038738Y0056996D01*
X0037720Y0056996D01*
X0036703Y0055979D01*
X0036703Y0052926D01*
X0036703Y0055979D02*
X0035685Y0056996D01*
X0033650Y0059003D02*
X0037720Y0059003D01*
X0031615Y0078257D02*
X0031615Y0079275D01*
X0032632Y0080292D01*
X0029855Y0080784D02*
X0029855Y0079767D01*
D14*
X0082146Y0098164D02*
X0083357Y0099648D01*
X0083049Y0100246D01*
X0085095Y0101094D01*
X0085307Y0100715D01*
X0085601Y0100397D01*
X0085962Y0100155D01*
X0086369Y0100005D01*
X0086800Y0099954D01*
X0087239Y0100007D01*
X0087652Y0100163D01*
X0088017Y0100412D01*
X0088311Y0100741D01*
X0088520Y0101131D01*
X0088629Y0101559D01*
X0088634Y0102001D01*
X0088534Y0102431D01*
X0088334Y0102825D01*
X0088046Y0103160D01*
X0087687Y0103418D01*
X0087277Y0103582D01*
X0086840Y0103645D01*
X0086400Y0103601D01*
X0085984Y0103455D01*
X0085614Y0103214D01*
X0085312Y0102891D01*
X0085095Y0102506D01*
X0083049Y0103354D01*
X0083357Y0103952D01*
X0082146Y0105436D01*
X0083164Y0106454D01*
X0084648Y0105243D01*
X0085246Y0105551D01*
X0085887Y0105756D01*
X0086080Y0107661D01*
X0087520Y0107661D01*
X0087713Y0105756D01*
X0088354Y0105551D01*
X0088952Y0105243D01*
X0090436Y0106454D01*
X0091454Y0105436D01*
X0090243Y0103952D01*
X0090551Y0103354D01*
X0090756Y0102713D01*
X0092661Y0102520D01*
X0092661Y0101080D01*
X0090756Y0100887D01*
X0090551Y0100246D01*
X0090243Y0099648D01*
X0091454Y0098164D01*
X0090436Y0097146D01*
X0088952Y0098357D01*
X0088354Y0098049D01*
X0087713Y0097844D01*
X0087520Y0095939D01*
X0086080Y0095939D01*
X0085887Y0097844D01*
X0085246Y0098049D01*
X0084648Y0098357D01*
X0083164Y0097146D01*
X0082146Y0098164D01*
X0082344Y0098406D02*
X0091256Y0098406D01*
X0091107Y0097817D02*
X0089613Y0097817D01*
X0090336Y0097228D02*
X0090517Y0097228D01*
X0090776Y0098995D02*
X0082824Y0098995D01*
X0083304Y0099584D02*
X0090296Y0099584D01*
X0090514Y0100173D02*
X0087667Y0100173D01*
X0088323Y0100762D02*
X0090717Y0100762D01*
X0090627Y0103119D02*
X0088082Y0103119D01*
X0088484Y0102530D02*
X0092563Y0102530D01*
X0092661Y0101941D02*
X0088633Y0101941D01*
X0088576Y0101352D02*
X0092661Y0101352D01*
X0090369Y0103708D02*
X0083231Y0103708D01*
X0083075Y0104297D02*
X0090525Y0104297D01*
X0091005Y0104886D02*
X0082595Y0104886D01*
X0082186Y0105475D02*
X0084364Y0105475D01*
X0085098Y0105475D02*
X0088502Y0105475D01*
X0089236Y0105475D02*
X0091414Y0105475D01*
X0090825Y0106064D02*
X0089958Y0106064D01*
X0087682Y0106064D02*
X0085918Y0106064D01*
X0085978Y0106653D02*
X0087622Y0106653D01*
X0087562Y0107242D02*
X0086038Y0107242D01*
X0085525Y0103119D02*
X0083617Y0103119D01*
X0084295Y0100762D02*
X0085280Y0100762D01*
X0085935Y0100173D02*
X0083086Y0100173D01*
X0082493Y0097817D02*
X0083987Y0097817D01*
X0083264Y0097228D02*
X0083083Y0097228D01*
X0085949Y0097228D02*
X0087651Y0097228D01*
X0087591Y0096639D02*
X0086009Y0096639D01*
X0086069Y0096050D02*
X0087531Y0096050D01*
X0087711Y0097817D02*
X0085889Y0097817D01*
X0085108Y0102530D02*
X0085038Y0102530D01*
X0083642Y0106064D02*
X0082775Y0106064D01*
M02*
